<?xml version="1.0" encoding="UTF-8" standalone="no"?>
<!DOCTYPE svg PUBLIC "-//W3C//DTD SVG 1.1//EN" "http://www.w3.org/Graphics/SVG/1.1/DTD/svg11.dtd">
<svg width="100%" height="100%" viewBox="0 0 850 850" version="1.1" xmlns="http://www.w3.org/2000/svg" xmlns:xlink="http://www.w3.org/1999/xlink" xml:space="preserve" xmlns:serif="http://www.serif.com/" style="fill-rule:evenodd;clip-rule:evenodd;">
    <g id="Ebene-1" serif:id="Ebene 1" transform="matrix(2.834646,0,0,2.834646,-141.637795,12.055118)">
        <g id="g1458" transform="matrix(0.809081,0,0,0.809081,-505.411077,1392.290938)">
            <g opacity="0.99">
                <g id="g1448" transform="matrix(0.833204,0,0,0.833204,375.878734,-1118.634511)">
                    <path id="path1332" d="M726.29,-543.082C747.685,-582.711 768.748,-621.722 790.218,-661.487L783.889,-661.487C755.166,-661.484 726.444,-661.419 697.723,-661.59C695.349,-661.604 692.601,-662.729 690.709,-664.209C688.135,-666.221 686.319,-669.171 684.005,-671.55C669.296,-686.673 651.988,-697.757 631.672,-703.519C608.184,-710.387 585.409,-710.07 561.434,-703.655C537.859,-697.316 518.537,-684.042 502.681,-665.698C500.116,-662.729 497.657,-661.4 493.764,-661.418C465.21,-661.545 436.655,-661.483 408.099,-661.481L401.65,-661.481L402.952,-659.291C410.32,-645.643 417.769,-632.038 425.096,-618.368C437.962,-594.365 450.67,-570.277 463.685,-546.356C465.328,-543.336 464.572,-542.179 462.097,-540.924C461.11,-540.423 460.15,-539.868 458.994,-539.238L455.83,-537.6C436.251,-527.094 419.039,-514.239 402.783,-500.056C424.913,-468.061 446.7,-436.562 468.649,-404.83C483.627,-417.542 500.022,-430.686 515.026,-438.807C520.129,-441.535 520.863,-441.362 523.524,-436.305C527.884,-428.02 532.241,-419.733 536.685,-411.493C557.631,-371.692 575.955,-337.629 595.409,-302.336C621.224,-348.715 647.719,-397.552 669.216,-437.625C670.671,-440.337 672.198,-441.497 675.128,-439.716C682.379,-435.307 690.029,-431.459 696.871,-426.494C705.886,-419.951 714.281,-412.553 723.525,-405.05C745.362,-436.612 767.247,-468.245 789.246,-500.042C766.293,-519.34 758.19,-526.296 726.29,-543.082Z" style="fill-rule:nonzero;stroke:rgb(6,0,0);stroke-width:0.42px;"/>
                    <g id="g1350" transform="matrix(1,0,0,1,-548.8121,31.749959)">
                        <g id="g1348" transform="matrix(0.371079,-0.371079,0.371079,0.371079,1561.4773,-874.48632)">
                            <path id="path1334" d="M-729.138,-224.078C-729.138,-155.074 -770.288,-95.676 -829.393,-69.095M-1053.363,-295.008C-1026.535,-353.302 -967.656,-393.812 -899.275,-393.928C-805.506,-394.086 -729.349,-318.228 -729.138,-224.46" style="fill:none;fill-rule:nonzero;stroke:rgb(254,254,1);stroke-width:2.97px;stroke-linecap:square;"/>
                            <path id="path1336" d="M-989.129,-253.491L-900.502,-224.85L-1036.52,-324.001L-900.19,-225.28L-998.911,-361.611L-899.759,-225.593L-951.521,-385.757L-899.254,-225.757L-898.988,-394.078L-898.722,-225.757L-846.455,-385.757L-898.216,-225.593L-799.064,-361.611L-897.786,-225.28L-761.455,-324.001L-897.473,-224.85L-737.308,-276.611L-897.309,-224.344L-728.988,-224.078L-897.309,-223.812L-737.308,-171.545L-897.473,-223.306L-761.455,-124.155L-897.786,-222.876L-799.064,-86.545L-898.216,-222.563L-868.829,-131.632M-869.365,-132.531L-898.722,-222.399L-898.806,-169.116M-899.171,-170.016L-899.254,-222.399L-911.848,-183.845M-912.143,-184.246L-899.759,-222.563L-920.93,-193.521M-921.233,-193.816L-900.19,-222.876L-929.174,-201.887M-929.536,-202.142L-900.502,-223.306L-938.712,-210.958M-939.112,-211.253L-900.667,-223.812L-953.094,-223.895M-953.409,-224.261L-900.667,-224.344L-988.069,-252.895" style="fill:none;fill-rule:nonzero;stroke:rgb(254,254,1);stroke-width:2.97px;stroke-linecap:square;"/>
                            <path id="path1338" d="M-739.138,-224.078C-739.138,-158.824 -778.239,-102.699 -834.294,-77.861M-1044.617,-290.083C-1019.529,-345.346 -963.906,-383.819 -899.258,-383.928C-811.01,-384.077 -739.337,-312.685 -739.138,-224.438" style="fill:none;fill-rule:nonzero;stroke:rgb(254,254,1);stroke-width:2.97px;stroke-linecap:square;"/>
                            <path id="path1340" d="M-791.638,-224.078C-791.638,-177.598 -821.178,-138.014 -862.513,-123.083M-999.757,-261.17C-984.679,-302.118 -945.353,-331.35 -899.169,-331.428C-839.905,-331.528 -791.771,-283.584 -791.638,-224.32" style="fill:none;fill-rule:nonzero;stroke:rgb(254,254,1);stroke-width:2.97px;stroke-linecap:square;"/>
                            <path id="path1342" d="M-801.638,-224.078C-801.638,-180.882 -829.772,-144.255 -868.719,-131.526M-991.299,-255.076C-978.372,-293.586 -942.02,-321.355 -899.152,-321.428C-845.409,-321.518 -801.759,-278.041 -801.638,-224.297" style="fill:none;fill-rule:nonzero;stroke:rgb(254,254,1);stroke-width:2.97px;stroke-linecap:square;"/>
                            <path id="path1344" d="M-883.138,-224.078C-883.138,-215.386 -890.287,-208.233 -898.979,-208.228C-907.671,-208.223 -914.828,-215.368 -914.838,-224.06C-914.848,-232.752 -907.706,-239.913 -899.015,-239.928C-890.323,-239.943 -883.158,-232.805 -883.138,-224.114" style="fill-rule:nonzero;stroke:rgb(254,254,1);stroke-width:2.97px;stroke-linecap:square;"/>
                            <path id="path1346" d="M-891.638,-224.078C-891.638,-220.047 -894.953,-216.73 -898.984,-216.728C-903.014,-216.726 -906.333,-220.039 -906.338,-224.07C-906.342,-228.1 -903.031,-231.421 -899,-231.428C-894.97,-231.435 -891.647,-228.125 -891.638,-224.094" style="fill:none;fill-rule:nonzero;stroke:rgb(254,254,1);stroke-width:2.97px;stroke-linecap:square;"/>
                        </g>
                    </g>
                    <g id="path1352" transform="matrix(1.030668,0,0,1.030668,-18.275614,15.457137)">
                        <path d="M732.964,-543.278C765.382,-526.22 770.569,-518.644 793.894,-499.033C771.538,-466.721 744.992,-429.773 722.802,-397.699C713.408,-405.324 707.416,-410.303 698.255,-416.952C691.302,-421.998 683.528,-425.908 676.16,-430.389C673.182,-432.199 671.631,-431.02 670.152,-428.264C648.307,-387.541 621.601,-337.988 595.369,-290.858C575.599,-326.723 556.759,-361.263 535.474,-401.709C530.958,-410.082 526.531,-418.503 522.1,-426.922C519.395,-432.062 518.65,-432.237 513.464,-429.465C498.216,-421.212 485.11,-407.348 469.889,-394.429L398.124,-499.047C422.259,-520.061 460.83,-542.926 460.83,-542.926C462.004,-543.566 404.259,-646.993 396.772,-660.862L395.449,-663.087L402.003,-663.087C431.021,-663.089 463.084,-662.644 492.101,-662.515C496.058,-662.497 498.556,-663.848 501.163,-666.865C517.276,-685.506 536.911,-698.995 560.867,-705.437C585.232,-711.955 608.376,-712.278 632.244,-705.298C652.889,-699.443 670.478,-688.18 685.424,-672.812C687.776,-670.394 689.622,-667.397 692.237,-665.352C694.16,-663.848 696.952,-662.705 699.365,-662.691C728.551,-662.516 757.739,-662.582 786.927,-662.585L797.421,-662.585C775.603,-622.177 754.707,-583.548 732.964,-543.278ZM405.736,-656.764C423.044,-624.746 455.9,-578.798 472.767,-547.595C464.317,-608.438 476.767,-634.606 493.214,-656.256L405.736,-656.764ZM719.409,-547.595L782.192,-656.256L699.283,-656.256C715.734,-625.897 727.283,-580.092 719.409,-547.595ZM768.63,-490.383C770.951,-493.744 772.312,-494.456 770.988,-496.537C767.094,-500.156 756.231,-508.121 739.672,-518.825C715.523,-534.434 688.619,-544.188 660.717,-550.913C627.694,-558.872 594.199,-560.277 560.581,-556.206C529.795,-552.476 500.11,-544.07 472.67,-529.584C455.487,-520.512 439.505,-509.166 422.987,-498.835C420.02,-496.979 420.031,-494.876 421.991,-492.074C436.967,-470.672 451.702,-442.438 466.395,-420.843C468.707,-417.445 470.182,-417.887 472.711,-420C494.691,-438.37 519.956,-457.902 547.592,-464.941C571.721,-471.087 599.22,-473.445 623.97,-468.951C660.552,-462.173 684.661,-443.725 719.046,-419.705C721.612,-417.748 723.113,-417.793 725.117,-420.735C739.427,-441.75 754.184,-469.46 768.63,-490.383ZM595.081,-308.206L662.959,-435.79C634.999,-453.667 571.353,-460.506 528.685,-436.67C546.818,-405.14 573.935,-353.289 595.081,-308.206ZM655.722,-567.07L667.929,-564.327C676.15,-562.14 681.583,-560.273 688.382,-558.131C694.813,-556.104 701.149,-553.774 707.81,-551.48C708.466,-553.154 709.185,-554.501 709.529,-555.936C713.948,-574.421 714.778,-592.913 710.428,-611.606C706.607,-625.391 705.491,-628.047 703.243,-632.712C690.708,-665.432 657.707,-694.851 615.212,-701.869C564.813,-710.19 517.774,-686.329 493.422,-643.075C477.078,-614.045 474.899,-584.233 483.901,-551.054C483.901,-551.054 503.217,-558.492 510.077,-560.364C516.938,-562.235 535.269,-567.707 553.556,-570.166C553.944,-570.218 564.857,-571.575 565.744,-571.648C595.621,-574.688 624.908,-573.151 655.722,-567.07Z"/>
                    </g>
                    <path id="path13521" serif:id="path1352" d="M768.63,-490.383C754.184,-469.46 739.671,-448.583 725.361,-427.568C723.357,-424.626 721.856,-424.581 719.29,-426.538C684.905,-450.558 660.552,-462.173 623.97,-468.951C599.22,-473.445 571.721,-471.087 547.592,-464.941C519.956,-457.902 494.935,-445.203 472.955,-426.833C470.426,-424.72 468.951,-424.278 466.639,-427.676C451.946,-449.271 436.967,-470.672 421.991,-492.074C420.031,-494.876 420.02,-496.979 422.987,-498.835C439.505,-509.166 455.487,-520.512 472.67,-529.584C500.11,-544.07 529.795,-552.476 560.581,-556.206C594.199,-560.277 627.694,-558.872 660.717,-550.913C688.619,-544.188 715.523,-534.434 739.672,-518.825C756.231,-508.121 767.094,-500.156 770.988,-496.537C772.312,-494.456 770.951,-493.744 768.63,-490.383M595.325,-315.039C574.179,-360.122 547.062,-411.973 528.929,-443.503C571.597,-467.339 635.243,-460.5 663.203,-442.623L595.325,-315.039ZM408.782,-656.256L493.214,-656.256C476.767,-634.606 464.317,-608.438 472.767,-547.595C455.9,-578.798 426.09,-624.238 408.782,-656.256M655.722,-567.07C624.908,-573.151 595.621,-574.688 565.744,-571.648C564.857,-571.575 553.944,-570.218 553.556,-570.166C535.269,-567.707 516.938,-562.235 510.077,-560.364C503.217,-558.492 483.901,-551.054 483.901,-551.054C474.899,-584.233 477.078,-614.045 493.422,-643.075C517.774,-686.329 564.813,-710.19 615.212,-701.869C657.707,-694.851 690.708,-665.432 703.243,-632.712C705.491,-628.047 706.607,-625.391 710.428,-611.606C714.778,-592.913 713.948,-574.421 709.529,-555.936C709.185,-554.501 708.466,-553.154 707.81,-551.48C701.149,-553.774 694.813,-556.104 688.382,-558.131C681.583,-560.273 676.15,-562.14 667.929,-564.327L655.722,-567.07ZM719.409,-547.595C727.283,-580.092 715.734,-625.897 699.283,-656.256L782.192,-656.256L719.409,-547.595ZM728.394,-542.263C750.137,-582.533 771.541,-622.177 793.359,-662.585L786.927,-662.585C757.739,-662.582 728.551,-662.516 699.365,-662.691C696.952,-662.705 694.16,-663.848 692.237,-665.352C689.622,-667.397 687.776,-670.394 685.424,-672.812C670.478,-688.18 652.889,-699.443 632.244,-705.298C608.376,-712.278 585.232,-711.955 560.867,-705.437C536.911,-698.995 517.276,-685.506 501.163,-666.865C498.556,-663.848 496.058,-662.497 492.101,-662.515C463.084,-662.644 434.067,-662.581 405.049,-662.579L398.495,-662.579L399.818,-660.354C407.305,-646.485 414.876,-632.66 422.321,-618.768C435.395,-594.376 464.152,-542.972 464.152,-542.972C464.152,-542.972 416.166,-512.953 399.647,-498.539C422.135,-466.026 444.275,-434.016 466.579,-401.77C481.8,-414.689 498.46,-428.045 513.708,-436.298C518.894,-439.07 519.639,-438.895 522.344,-433.755C526.775,-425.336 531.202,-416.915 535.718,-408.542C557.003,-368.096 575.624,-333.481 595.394,-297.616C621.626,-344.746 648.551,-394.374 670.396,-435.097C671.875,-437.853 673.426,-439.032 676.404,-437.222C683.772,-432.741 691.546,-428.831 698.499,-423.785C707.66,-417.136 716.191,-409.619 725.585,-401.994C747.775,-434.068 770.015,-466.213 792.371,-498.525C769.046,-518.136 760.812,-525.205 728.394,-542.263Z" style="fill:rgb(254,254,1);fill-rule:nonzero;"/>
                    <path id="path1354" d="M762.505,-503.737C762.525,-503.72 762.546,-503.701 762.567,-503.684C762.758,-503.421 762.701,-503.487 762.505,-503.737" style="fill:rgb(254,254,1);fill-rule:nonzero;"/>
                    <path id="path1356" d="M552.748,-686.175C529.773,-674.045 511.867,-656.983 500.138,-633.593C488.336,-610.058 486.156,-585.281 489.906,-559.582C471.281,-620.208 512.558,-675.478 552.748,-686.175" style="fill:rgb(254,254,1);fill-rule:nonzero;"/>
                    <path id="path1358" d="M639.759,-686.175C662.735,-674.045 680.641,-656.983 692.369,-633.593C704.171,-610.058 706.351,-585.281 702.601,-559.582C721.227,-620.208 679.949,-675.478 639.759,-686.175" style="fill:rgb(254,254,1);fill-rule:nonzero;"/>
                    <g id="g1372">
                        <path id="path1360" d="M490.174,-493.762C492.258,-488.725 491.989,-482.942 490.06,-477.926C488.908,-475.057 487.247,-472.467 485.07,-470.112C482.892,-467.758 480.414,-465.87 477.585,-464.41C475.127,-463.143 472.498,-462.287 469.657,-461.825C466.816,-461.361 464.009,-461.375 461.304,-461.756C458.14,-462.202 454.367,-463.646 451.756,-465.518C449.536,-467.11 447.683,-468.944 446.34,-471.051C443.787,-475.055 443.053,-479.919 444.043,-484.547C444.643,-488.003 446.57,-492.002 448.838,-494.564C451.685,-497.782 454.391,-499.997 458.104,-502.13C463.648,-505.316 470.886,-506.296 477.239,-504.662C480.022,-503.94 481.537,-503.206 481.828,-502.522C481.927,-502.288 481.898,-502.042 481.742,-501.784C481.585,-501.526 481.346,-501.328 481.025,-501.189C480.532,-500.977 479.872,-501.064 479.04,-501.447C472.706,-504.338 465.069,-503.817 459.017,-500.588C458.216,-500.16 457.392,-499.69 456.601,-499.163C459.774,-492.986 462.952,-486.812 466.135,-480.641C468.94,-475.453 471.741,-470.264 474.54,-465.072C475.311,-465.324 476.052,-465.634 476.764,-466.001C478.879,-467.092 480.771,-468.448 482.462,-470.089C486.332,-473.89 489.27,-478.991 489.518,-484.527C489.703,-486.88 489.486,-489.098 488.837,-491.18C483.43,-488.94 478.108,-486.494 472.857,-483.912C471.448,-483.259 470.582,-482.896 470.257,-482.84C469.931,-482.785 469.675,-482.94 469.489,-483.306C469.205,-483.863 469.548,-484.391 470.521,-484.879C471.256,-485.235 471.624,-485.411 472.361,-485.761C478.233,-488.595 484.155,-491.256 490.174,-493.762" style="fill:rgb(254,254,1);fill-rule:nonzero;"/>
                        <path id="path1362" d="M508.958,-521.41C510.37,-516.545 511.785,-511.68 513.202,-506.816C514.721,-501.718 516.241,-496.619 517.761,-491.52C518.738,-488.42 519.225,-486.869 520.2,-483.767C521.235,-483.998 522.15,-484.21 522.887,-484.439C527.786,-485.963 533.291,-487.858 535.93,-492.759C536.813,-494.648 537.168,-497.135 536.91,-500.15C536.446,-505.577 535.168,-511.021 534.039,-516.384C533.345,-519.416 532.998,-520.932 532.303,-523.964C532.052,-524.894 531.926,-525.359 531.674,-526.289C531.458,-527.283 531.845,-527.889 532.835,-528.098C533.71,-528.284 534.248,-527.895 534.446,-526.937C534.562,-526.381 534.684,-525.618 534.813,-524.646C535.516,-520.807 536.221,-516.968 536.929,-513.13C537.544,-509.837 538.201,-506.535 538.694,-503.233C538.956,-501.484 539.081,-499.811 539.088,-498.234C539.102,-494.977 538.172,-492.087 536.319,-489.808C532.976,-485.699 527.432,-483.857 522.542,-482.413C518.019,-481.078 513.102,-479.803 508.237,-480.304C505.445,-480.592 502.998,-481.924 500.938,-484.281C499.999,-485.368 499.212,-486.567 498.638,-487.863C496.894,-491.804 495.385,-495.939 493.81,-499.994C491.931,-504.763 490.05,-509.53 488.168,-514.297C495.034,-516.881 501.947,-519.247 508.958,-521.41" style="fill:rgb(254,254,1);fill-rule:nonzero;"/>
                        <path id="path1364" d="M573.201,-531.26C573.395,-527.592 573.494,-525.757 573.692,-522.089C573.905,-518.61 574.012,-516.871 574.227,-513.392C574.75,-506.684 575.272,-499.976 575.792,-493.267C569.548,-492.763 563.349,-492.083 557.143,-491.223C556.072,-498.943 555.004,-506.664 553.941,-514.386C553.441,-517.527 553.191,-519.097 552.688,-522.238C552.255,-524.903 552.039,-526.235 551.604,-528.899C549.761,-528.593 548.841,-528.432 547.003,-528.097C544.371,-527.62 543.057,-527.367 540.435,-526.83C540.048,-526.746 539.854,-526.704 539.467,-526.618C538.354,-526.406 537.731,-526.641 537.595,-527.333C537.474,-527.946 537.733,-528.357 538.372,-528.559C538.551,-528.634 539.117,-528.773 540.072,-528.971C554.445,-531.536 568.834,-533.134 583.42,-533.787C584.935,-533.823 585.836,-533.789 586.123,-533.698C586.601,-533.555 586.845,-533.228 586.858,-532.72C586.875,-532.055 586.284,-531.709 585.086,-531.672C583.858,-531.668 583.245,-531.663 582.016,-531.646C578.771,-531.557 577.149,-531.489 573.905,-531.31C573.624,-531.291 573.483,-531.281 573.201,-531.26" style="fill:rgb(254,254,1);fill-rule:nonzero;"/>
                        <path id="path1366" d="M634.72,-531.239C634.341,-530.782 634.152,-530.553 633.775,-530.095C625.166,-519.126 617.296,-507.676 610.661,-495.398C613.481,-495.221 614.89,-495.113 617.706,-494.858C620.662,-494.633 622.139,-494.499 625.09,-494.189C625.894,-494.121 626.297,-494.086 627.101,-494.012C628.313,-493.858 628.87,-493.42 628.774,-492.713C628.706,-492.202 628.522,-491.921 628.226,-491.871C627.929,-491.82 626.936,-491.899 625.243,-492.085C613.357,-493.417 601.504,-494.019 589.543,-493.897C589.767,-494.359 589.88,-494.59 590.107,-495.052C596.484,-507.53 603.6,-519.535 610.59,-531.668C605.257,-531.825 599.94,-531.875 594.606,-531.819C593.971,-531.808 593.654,-531.801 593.019,-531.786C591.702,-531.78 591.04,-532.132 591.032,-532.856C591.026,-533.364 591.306,-533.7 591.873,-533.862C592.203,-533.943 593.02,-533.99 594.323,-533.99C607.87,-533.889 621.283,-532.975 634.72,-531.239" style="fill:rgb(254,254,1);fill-rule:nonzero;"/>
                        <path id="path1368" d="M657.913,-527.113C664.037,-525.726 670.103,-524.192 676.15,-522.502C677.149,-522.219 678.148,-521.924 679.143,-521.609L678.594,-519.899C676.284,-512.399 673.942,-504.792 671.641,-497.289C670.496,-493.212 669.348,-489.135 668.197,-485.059L667.667,-483.27C666.799,-483.521 665.795,-483.811 664.655,-484.136C659.599,-485.532 654.533,-486.809 649.42,-487.976C650.836,-494.274 652.254,-500.571 653.674,-506.867C655.092,-513.615 656.505,-520.363 657.913,-527.113M670.322,-484.439C671.607,-484.114 672.768,-483.778 674.039,-483.565C675.259,-483.365 676.723,-483.319 678.444,-483.413C682.37,-483.598 686.208,-485.024 689.374,-487.199C691.839,-488.892 694.389,-492.083 695.486,-494.838C696.684,-497.844 696.914,-502.361 695.747,-505.492C693.471,-512.555 688.023,-516.912 681.171,-519.084L681.741,-520.77C683.643,-520.109 684.804,-519.57 686.6,-518.676C691.612,-516.04 696.329,-511.531 697.757,-506.169C698.985,-501.563 699.02,-498.393 697.53,-493.962C696.259,-490.18 692.899,-486.868 689.362,-484.722C685.075,-482.122 679.754,-481.064 674.737,-481.624C673.395,-481.798 672.223,-482.009 671.218,-482.263C670.84,-482.358 670.479,-482.444 669.768,-482.648L670.322,-484.439Z" style="fill:rgb(254,254,1);fill-rule:nonzero;"/>
                        <path id="path1370" d="M729.384,-500.574C726.152,-494.439 722.924,-488.302 719.701,-482.163C717.075,-476.893 714.447,-471.624 711.814,-466.358C712.726,-465.736 713.497,-465.255 714.132,-464.92C715.96,-463.956 717.985,-463.247 720.229,-462.777C722.472,-462.306 724.618,-462.139 726.68,-462.286C728.013,-462.386 729.514,-462.673 731.191,-463.143C732.867,-463.613 734.34,-464.163 735.601,-464.806C736.331,-465.182 736.906,-465.238 737.321,-464.977C737.943,-464.585 738.107,-464.156 737.813,-463.694C737.499,-463.198 736.5,-462.658 734.836,-462.05C733.171,-461.443 731.505,-460.996 729.836,-460.705C726.455,-460.044 722.246,-460.32 718.976,-461.224C716.822,-461.82 714.804,-462.545 713.023,-463.482C710.424,-464.848 708.072,-466.69 705.911,-469.035C702.624,-472.527 700.391,-476.99 699.562,-481.64C698.962,-485.007 699.439,-489.577 700.734,-492.712C702.251,-496.388 705.109,-499.223 708.205,-501.333C711.893,-503.847 717.025,-504.637 721.643,-504.344C725.605,-504.093 729.497,-502.781 732.768,-501.063C738.186,-498.219 743.408,-493.464 745.766,-487.141C746.889,-484.331 747.202,-482.582 746.777,-481.902C746.663,-481.72 746.458,-481.617 746.163,-481.593C745.868,-481.57 745.599,-481.633 745.356,-481.783C744.952,-482.034 744.667,-482.657 744.494,-483.656C744.016,-486.739 742.147,-490.243 740.261,-492.584C738.128,-495.231 734.814,-498.017 731.738,-499.583C730.948,-499.985 730.157,-500.33 729.384,-500.574" style="fill:rgb(254,254,1);fill-rule:nonzero;"/>
                    </g>
                    <path id="path1374" d="M594.299,-378.983L598.523,-378.983L598.523,-380.53C597.109,-380.704 595.704,-380.553 594.299,-380.62L594.299,-378.983ZM598.527,-382.936C597.097,-383.01 595.695,-382.945 594.298,-382.925C594.249,-382.547 594.264,-381.476 594.316,-381.3C594.34,-381.296 594.364,-381.289 594.389,-381.288C595.704,-381.282 597.02,-381.275 598.335,-381.271C598.398,-381.271 598.461,-381.291 598.527,-381.302L598.527,-382.936ZM594.285,-385.723C595.714,-385.71 597.117,-385.735 598.517,-385.783C598.565,-386.235 598.547,-387.234 598.495,-387.392L594.285,-387.392L594.285,-385.723ZM598.523,-376.08L597.89,-376.08C596.819,-376.081 595.747,-376.083 594.675,-376.082C594.545,-376.082 594.415,-376.067 594.264,-376.058C594.313,-375.504 594.215,-374.982 594.252,-374.465C594.889,-374.341 598.156,-374.377 598.523,-374.509L598.523,-376.08ZM598.532,-385.241C597.121,-385.221 595.711,-385.201 594.29,-385.18L594.29,-383.481L598.532,-383.481L598.532,-385.241ZM594.286,-387.942L598.52,-387.942L598.52,-389.659C598.397,-389.67 598.291,-389.686 598.184,-389.689C597.899,-389.695 597.614,-389.696 597.328,-389.699C596.599,-389.707 595.869,-389.722 595.139,-389.722C594.939,-389.722 594.738,-389.688 594.54,-389.652C594.298,-389.608 594.28,-389.586 594.276,-389.338C594.269,-388.935 594.273,-388.532 594.274,-388.129C594.274,-388.072 594.281,-388.015 594.286,-387.942M598.524,-378.376C597.113,-378.422 595.713,-378.381 594.296,-378.318L594.296,-376.621L598.524,-376.621L598.524,-378.376ZM598.042,-367.797C597.732,-367.903 595.275,-367.894 594.887,-367.793C594.95,-367.389 595.007,-366.983 595.079,-366.579C595.216,-365.819 595.414,-365.077 595.764,-364.381C595.989,-363.933 596.088,-363.452 596.087,-362.948C596.084,-360.632 596.086,-358.316 596.086,-355.999C596.086,-354.505 596.083,-353.011 596.091,-351.517C596.092,-351.347 596.127,-351.167 596.188,-351.007C596.253,-350.84 596.488,-350.768 596.607,-350.871C596.689,-350.943 596.755,-351.058 596.779,-351.164C596.817,-351.325 596.824,-351.496 596.822,-351.662C596.817,-352.14 596.797,-352.617 596.792,-353.094C596.786,-353.673 596.791,-354.252 596.791,-354.832C596.791,-357.702 596.792,-360.572 596.791,-363.443C596.791,-363.586 596.798,-363.722 596.874,-363.854C597.218,-364.454 597.463,-365.096 597.618,-365.768C597.773,-366.443 597.903,-367.123 598.043,-367.797M594.29,-391.12C594.528,-390.974 594.768,-390.981 594.998,-390.979C595.986,-390.97 596.975,-390.972 597.964,-390.977C598.154,-390.978 598.347,-390.995 598.538,-391.093C598.538,-391.18 598.542,-391.263 598.537,-391.345C598.501,-391.913 598.482,-392.482 598.422,-393.047C598.347,-393.754 598.224,-394.456 598.149,-395.163C598.116,-395.466 597.936,-395.599 597.694,-395.696C597.618,-395.726 597.53,-395.738 597.448,-395.738C596.753,-395.738 596.057,-395.735 595.362,-395.732C595.329,-395.732 595.295,-395.728 595.262,-395.723C594.897,-395.661 594.782,-395.544 594.73,-395.175C594.635,-394.513 594.525,-393.852 594.453,-393.187C594.379,-392.498 594.343,-391.805 594.29,-391.12M594.274,-372.938C594.391,-371.37 594.502,-369.805 594.802,-368.257C594.893,-368.246 594.958,-368.232 595.024,-368.231C595.895,-368.217 596.767,-368.204 597.638,-368.193C597.721,-368.192 597.804,-368.212 597.887,-368.221C598.041,-368.239 598.112,-368.324 598.146,-368.478C598.262,-369.004 598.301,-369.537 598.337,-370.071C598.342,-370.146 598.354,-370.22 598.363,-370.295C598.399,-370.567 598.441,-370.839 598.468,-371.112C598.489,-371.321 598.49,-371.531 598.499,-371.74C598.517,-372.173 598.535,-372.606 598.553,-373.024C598.172,-373.19 594.836,-373.121 594.274,-372.937M594.862,-396.024C594.956,-395.921 595.065,-395.891 595.187,-395.889C595.313,-395.888 595.439,-395.882 595.564,-395.882C596.252,-395.881 596.94,-395.872 597.628,-395.884C597.957,-395.89 598.033,-396.025 597.985,-396.316C597.93,-396.645 597.886,-396.977 597.846,-397.309C597.721,-398.364 597.604,-399.419 597.476,-400.473C597.354,-401.48 597.335,-402.493 597.299,-403.504C597.287,-403.83 597.314,-404.157 597.329,-404.483C597.35,-404.91 597.35,-405.339 597.403,-405.762C597.543,-406.857 597.719,-407.947 597.858,-409.042C597.983,-410.02 598.091,-411.001 598.18,-411.983C598.239,-412.65 598.258,-413.32 598.283,-413.989C598.309,-414.659 598.327,-415.329 598.335,-415.999C598.347,-417.048 598.349,-418.098 598.351,-419.147C598.351,-419.282 598.384,-419.375 598.496,-419.466C600.527,-421.112 602.551,-422.766 604.581,-424.411C604.789,-424.579 604.885,-424.769 604.885,-425.034C604.882,-429.299 604.882,-433.564 604.885,-437.83C604.885,-438.102 604.788,-438.31 604.576,-438.482C603.393,-439.443 602.213,-440.409 601.034,-441.375C599.602,-442.548 598.172,-443.723 596.741,-444.897C596.612,-445.003 596.477,-445.02 596.332,-444.939C596.252,-444.894 596.168,-444.851 596.097,-444.794C595.426,-444.252 594.757,-443.707 594.087,-443.163C592.449,-441.831 590.812,-440.499 589.174,-439.168C588.907,-438.951 588.644,-438.73 588.371,-438.522C588.124,-438.334 588.006,-438.093 588.013,-437.786C588.014,-437.727 588.013,-437.668 588.013,-437.609C588.018,-436.812 588.03,-436.015 588.029,-435.217C588.026,-432.867 588.018,-430.516 588.013,-428.166C588.011,-427.192 588.02,-426.218 588.009,-425.244C588.004,-424.841 588.158,-424.54 588.469,-424.29C589.846,-423.182 591.218,-422.067 592.591,-420.955C593.118,-420.527 593.645,-420.099 594.172,-419.672C594.341,-419.535 594.462,-419.37 594.475,-419.144C594.486,-418.952 594.503,-418.76 594.508,-418.568C594.527,-417.839 594.541,-417.11 594.56,-416.381C594.575,-415.786 594.588,-415.192 594.611,-414.598C594.639,-413.828 594.668,-413.058 594.713,-412.289C594.749,-411.68 594.789,-411.07 594.864,-410.465C595.033,-409.104 595.237,-407.747 595.401,-406.386C595.489,-405.655 595.547,-404.92 595.578,-404.185C595.62,-403.197 595.56,-402.208 595.473,-401.223C595.409,-400.498 595.342,-399.774 595.263,-399.051C595.197,-398.461 595.111,-397.873 595.033,-397.285C594.977,-396.863 594.919,-396.442 594.862,-396.023" style="fill:rgb(254,254,1);fill-rule:nonzero;"/>
                    <path id="path1376" d="M596.177,-422.628C595.894,-422.951 595.63,-423.245 595.376,-423.545C595.067,-423.91 594.744,-424.266 594.465,-424.653C593.97,-425.34 593.49,-426.039 593.03,-426.751C592.564,-427.47 592.143,-428.215 591.921,-429.054C591.869,-429.249 591.822,-429.444 591.772,-429.639C591.473,-430.818 591.329,-432.011 591.376,-433.23C591.411,-434.144 591.396,-435.06 591.403,-435.975C591.404,-436.034 591.402,-436.093 591.399,-436.152C591.395,-436.247 591.352,-436.32 591.252,-436.323C591.137,-436.327 591.093,-436.246 591.088,-436.142C591.084,-436.066 591.086,-435.991 591.085,-435.915C591.074,-435.042 591.079,-434.168 591.047,-433.296C591.007,-432.198 591.123,-431.122 591.333,-430.044C591.602,-428.668 592.147,-427.423 592.944,-426.279C593.332,-425.722 593.709,-425.156 594.099,-424.6C594.243,-424.394 594.405,-424.201 594.567,-424.008C594.965,-423.532 595.37,-423.061 595.767,-422.584C596.092,-422.194 596.265,-421.752 596.187,-421.234C596.167,-421.099 596.197,-420.958 596.141,-420.783C595.937,-421.003 595.77,-421.202 595.583,-421.38C594.682,-422.234 593.77,-423.077 592.871,-423.934C592.49,-424.299 592.089,-424.656 591.771,-425.074C590.895,-426.224 590.362,-427.529 590.188,-428.969C590.095,-429.744 590.029,-430.522 589.967,-431.3C589.847,-432.808 589.799,-434.318 589.868,-435.83C589.889,-436.29 589.941,-436.749 589.98,-437.209C589.989,-437.318 589.973,-437.415 589.85,-437.448C589.764,-437.472 589.68,-437.398 589.658,-437.262C589.623,-437.055 589.594,-436.847 589.579,-436.638C589.482,-435.371 589.501,-434.103 589.547,-432.836C589.583,-431.847 589.668,-430.859 589.75,-429.872C589.808,-429.169 589.9,-428.47 590.087,-427.787C590.509,-426.252 591.269,-424.926 592.461,-423.856C593.136,-423.251 593.808,-422.643 594.464,-422.017C594.986,-421.52 595.481,-420.994 595.987,-420.48C596.111,-420.354 596.157,-420.209 596.149,-420.026C596.111,-419.162 596.087,-418.298 596.061,-417.433C596.059,-417.361 596.058,-417.263 596.101,-417.219C596.217,-417.098 596.2,-416.957 596.196,-416.817C596.191,-416.658 596.171,-416.499 596.168,-416.34C596.165,-416.179 596.225,-416.119 596.371,-416.117C596.517,-416.115 596.584,-416.175 596.582,-416.333C596.58,-416.492 596.551,-416.651 596.551,-416.81C596.551,-416.924 596.545,-417.064 596.605,-417.147C596.683,-417.256 596.69,-417.359 596.686,-417.476C596.658,-418.323 596.637,-419.171 596.594,-420.018C596.584,-420.216 596.644,-420.357 596.77,-420.49C596.979,-420.708 597.177,-420.938 597.396,-421.145C598.297,-421.999 599.21,-422.842 600.108,-423.7C600.501,-424.076 600.912,-424.447 601.24,-424.877C602.063,-425.954 602.61,-427.169 602.818,-428.512C602.944,-429.324 603.007,-430.146 603.086,-430.964C603.234,-432.479 603.251,-433.999 603.225,-435.519C603.216,-436.03 603.161,-436.541 603.125,-437.051C603.12,-437.126 603.102,-437.2 603.088,-437.274C603.069,-437.373 603.024,-437.452 602.909,-437.449C602.817,-437.447 602.768,-437.36 602.773,-437.218C602.775,-437.16 602.785,-437.101 602.792,-437.043C602.806,-436.935 602.829,-436.827 602.833,-436.719C602.859,-435.913 602.897,-435.108 602.902,-434.303C602.91,-432.815 602.809,-431.332 602.67,-429.852C602.589,-428.99 602.469,-428.133 602.175,-427.314C601.803,-426.277 601.296,-425.314 600.501,-424.534C599.998,-424.041 599.46,-423.582 598.952,-423.094C598.25,-422.42 597.56,-421.733 596.866,-421.052C596.785,-420.973 596.706,-420.893 596.586,-420.773C596.571,-421.06 596.546,-421.284 596.554,-421.507C596.559,-421.671 596.582,-421.842 596.639,-421.995C596.792,-422.413 597.095,-422.733 597.38,-423.064C597.784,-423.535 598.204,-423.996 598.572,-424.494C599.056,-425.147 599.508,-425.825 599.953,-426.506C600.454,-427.273 600.905,-428.069 601.145,-428.964C601.216,-429.232 601.281,-429.501 601.345,-429.77C601.574,-430.72 601.723,-431.681 601.713,-432.66C601.703,-433.785 601.685,-434.91 601.669,-436.035C601.668,-436.094 601.678,-436.162 601.651,-436.208C601.621,-436.258 601.556,-436.317 601.505,-436.318C601.456,-436.318 601.382,-436.259 601.363,-436.21C601.334,-436.135 601.338,-436.045 601.339,-435.962C601.347,-435.047 601.34,-434.131 601.372,-433.216C601.411,-432.126 601.293,-431.058 601.066,-429.992C600.857,-429.015 600.537,-428.086 600.021,-427.229C599.461,-426.302 598.846,-425.411 598.205,-424.538C598.141,-424.45 598.066,-424.371 597.995,-424.288C597.556,-423.768 597.118,-423.249 596.679,-422.731C596.647,-422.693 596.605,-422.663 596.529,-422.595C596.564,-422.959 596.605,-423.267 596.619,-423.576C596.653,-424.281 596.925,-424.875 597.419,-425.373C597.466,-425.42 597.514,-425.468 597.554,-425.522C597.896,-425.988 598.268,-426.436 598.569,-426.929C599.023,-427.674 599.386,-428.467 599.668,-429.298C599.897,-429.974 600.033,-430.659 600.057,-431.368C600.086,-432.232 600.106,-433.097 600.129,-433.961C600.131,-434.045 600.136,-434.134 600.109,-434.21C600.092,-434.262 600.016,-434.333 599.976,-434.328C599.917,-434.319 599.858,-434.256 599.815,-434.204C599.793,-434.177 599.803,-434.123 599.802,-434.081C599.79,-433.678 599.779,-433.276 599.766,-432.873C599.745,-432.244 599.732,-431.614 599.7,-430.985C599.676,-430.523 599.578,-430.072 599.434,-429.63C599.041,-428.425 598.499,-427.295 597.734,-426.279C597.577,-426.071 597.408,-425.874 597.247,-425.67C597.044,-425.413 596.844,-425.155 596.642,-424.898C596.62,-424.87 596.591,-424.848 596.543,-424.801C596.589,-425.539 596.719,-426.214 597.07,-426.837C597.501,-427.6 597.787,-428.426 598.063,-429.255C598.121,-429.429 598.158,-429.611 598.195,-429.792C598.359,-430.576 598.349,-431.378 598.426,-432.171C598.442,-432.332 598.388,-432.415 598.287,-432.429C598.178,-432.444 598.112,-432.368 598.097,-432.188C598.073,-431.911 598.065,-431.634 598.036,-431.359C597.981,-430.825 597.938,-430.289 597.849,-429.761C597.736,-429.094 597.44,-428.484 597.198,-427.858C597.079,-427.549 596.916,-427.257 596.772,-426.957C596.755,-426.961 596.737,-426.965 596.72,-426.97C596.714,-427.05 596.704,-427.131 596.702,-427.211C596.674,-428.689 596.634,-430.166 596.621,-431.644C596.601,-433.986 596.599,-436.329 596.587,-438.672C596.583,-439.444 596.569,-440.216 596.56,-440.988L596.56,-441.013C596.552,-441.2 596.489,-441.29 596.369,-441.285C596.257,-441.281 596.199,-441.199 596.192,-441.025C596.189,-440.941 596.194,-440.857 596.195,-440.773C596.195,-440.572 596.197,-440.37 596.193,-440.169C596.178,-439.371 596.148,-438.574 596.144,-437.776C596.133,-435.501 596.14,-433.225 596.124,-430.95C596.114,-429.665 596.071,-428.381 596.042,-427.097C596.041,-427.055 596.024,-427.014 596.004,-426.926C595.929,-427.068 595.871,-427.16 595.829,-427.259C595.621,-427.754 595.416,-428.25 595.21,-428.745C594.94,-429.395 594.804,-430.075 594.754,-430.775C594.722,-431.235 594.692,-431.697 594.657,-432.157C594.641,-432.364 594.582,-432.441 594.469,-432.43C594.357,-432.418 594.313,-432.329 594.326,-432.129C594.358,-431.66 594.384,-431.19 594.425,-430.722C594.473,-430.186 594.543,-429.653 594.721,-429.142C594.993,-428.357 595.265,-427.57 595.676,-426.844C595.998,-426.276 596.143,-425.662 596.19,-425.019C596.194,-424.967 596.184,-424.913 596.18,-424.847C595.813,-425.29 595.463,-425.715 595.113,-426.14C595.108,-426.146 595.103,-426.153 595.098,-426.16C594.666,-426.72 594.309,-427.327 593.99,-427.957C593.648,-428.633 593.39,-429.342 593.194,-430.073C593.065,-430.555 593.028,-431.05 593.012,-431.545C592.986,-432.376 592.971,-433.207 592.952,-434.038C592.951,-434.088 592.962,-434.148 592.939,-434.186C592.904,-434.244 592.85,-434.316 592.792,-434.33C592.693,-434.354 592.641,-434.271 592.628,-434.181C592.617,-434.099 592.618,-434.014 592.619,-433.93C592.637,-433.208 592.655,-432.486 592.676,-431.764C592.696,-431.058 592.743,-430.354 592.957,-429.675C593.468,-428.055 594.232,-426.575 595.384,-425.31C595.491,-425.192 595.586,-425.063 595.683,-424.937C595.861,-424.708 595.995,-424.454 596.034,-424.166C596.099,-423.693 596.145,-423.217 596.198,-422.742C596.201,-422.712 596.187,-422.681 596.177,-422.628M594.861,-396.024C594.918,-396.442 594.976,-396.863 595.032,-397.285C595.11,-397.874 595.196,-398.461 595.262,-399.051C595.341,-399.774 595.408,-400.498 595.472,-401.223C595.559,-402.209 595.619,-403.197 595.577,-404.185C595.546,-404.92 595.488,-405.656 595.4,-406.386C595.236,-407.747 595.032,-409.104 594.863,-410.465C594.789,-411.07 594.748,-411.68 594.712,-412.289C594.667,-413.058 594.639,-413.828 594.61,-414.598C594.588,-415.192 594.574,-415.787 594.559,-416.381C594.541,-417.11 594.526,-417.839 594.507,-418.568C594.502,-418.76 594.485,-418.952 594.474,-419.144C594.461,-419.371 594.341,-419.535 594.171,-419.672C593.644,-420.1 593.118,-420.528 592.59,-420.955C591.217,-422.067 589.845,-423.182 588.468,-424.29C588.157,-424.54 588.004,-424.841 588.009,-425.244C588.019,-426.218 588.011,-427.192 588.013,-428.166C588.018,-430.516 588.025,-432.867 588.028,-435.218C588.029,-436.015 588.018,-436.812 588.012,-437.609C588.012,-437.668 588.013,-437.727 588.012,-437.786C588.005,-438.093 588.124,-438.334 588.37,-438.522C588.643,-438.731 588.906,-438.951 589.173,-439.168C590.811,-440.5 592.449,-441.831 594.087,-443.163C594.757,-443.707 595.425,-444.252 596.096,-444.794C596.168,-444.852 596.251,-444.895 596.331,-444.939C596.476,-445.02 596.611,-445.003 596.74,-444.897C598.171,-443.723 599.601,-442.549 601.033,-441.376C602.213,-440.409 603.392,-439.443 604.575,-438.482C604.787,-438.31 604.884,-438.103 604.884,-437.83C604.881,-433.564 604.881,-429.299 604.884,-425.034C604.884,-424.769 604.788,-424.58 604.58,-424.411C602.55,-422.766 600.526,-421.112 598.496,-419.466C598.383,-419.375 598.35,-419.282 598.35,-419.147C598.348,-418.098 598.346,-417.049 598.334,-416C598.326,-415.329 598.308,-414.659 598.283,-413.989C598.257,-413.32 598.239,-412.65 598.179,-411.984C598.091,-411.001 597.982,-410.02 597.858,-409.042C597.718,-407.947 597.542,-406.857 597.403,-405.762C597.349,-405.339 597.349,-404.91 597.329,-404.483C597.314,-404.157 597.287,-403.83 597.298,-403.505C597.334,-402.493 597.353,-401.481 597.476,-400.474C597.603,-399.419 597.721,-398.364 597.845,-397.309C597.885,-396.978 597.929,-396.646 597.984,-396.316C598.032,-396.025 597.956,-395.891 597.627,-395.885C596.94,-395.872 596.252,-395.881 595.564,-395.883C595.438,-395.883 595.312,-395.888 595.186,-395.89C595.065,-395.891 594.956,-395.92 594.861,-396.024" style="fill:rgb(254,254,1);fill-rule:nonzero;"/>
                    <path id="path1378" d="M594.273,-372.937C594.835,-373.121 598.172,-373.19 598.552,-373.024C598.535,-372.606 598.517,-372.173 598.498,-371.739C598.489,-371.53 598.488,-371.321 598.468,-371.112C598.441,-370.839 598.398,-370.567 598.363,-370.294C598.353,-370.22 598.341,-370.146 598.336,-370.071C598.301,-369.537 598.262,-369.004 598.146,-368.478C598.111,-368.323 598.04,-368.239 597.886,-368.221C597.803,-368.211 597.72,-368.192 597.638,-368.193C596.766,-368.203 595.894,-368.216 595.023,-368.231C594.958,-368.232 594.893,-368.245 594.801,-368.256C594.501,-369.805 594.391,-371.37 594.273,-372.937" style="fill:rgb(254,254,1);fill-rule:nonzero;"/>
                    <path id="path1380" d="M594.289,-391.12C594.342,-391.805 594.378,-392.498 594.452,-393.187C594.524,-393.852 594.634,-394.512 594.729,-395.175C594.781,-395.544 594.896,-395.661 595.261,-395.722C595.294,-395.728 595.328,-395.731 595.361,-395.731C596.057,-395.734 596.752,-395.738 597.448,-395.737C597.53,-395.737 597.617,-395.726 597.693,-395.696C597.935,-395.599 598.116,-395.465 598.148,-395.162C598.224,-394.456 598.346,-393.754 598.421,-393.047C598.481,-392.482 598.501,-391.913 598.536,-391.345C598.541,-391.262 598.537,-391.179 598.537,-391.093C598.346,-390.995 598.153,-390.977 597.963,-390.977C596.974,-390.972 595.986,-390.97 594.997,-390.979C594.767,-390.981 594.527,-390.974 594.289,-391.119" style="fill:rgb(254,254,1);fill-rule:nonzero;"/>
                    <path id="path1382" d="M598.042,-367.797C597.902,-367.123 597.772,-366.443 597.617,-365.768C597.463,-365.096 597.217,-364.454 596.873,-363.854C596.798,-363.722 596.79,-363.586 596.79,-363.443C596.791,-360.572 596.791,-357.702 596.791,-354.832C596.791,-354.252 596.787,-353.673 596.792,-353.094C596.797,-352.617 596.817,-352.14 596.822,-351.662C596.823,-351.496 596.816,-351.325 596.779,-351.165C596.754,-351.058 596.688,-350.943 596.606,-350.871C596.487,-350.768 596.252,-350.84 596.188,-351.008C596.127,-351.167 596.091,-351.347 596.09,-351.517C596.083,-353.011 596.086,-354.505 596.086,-355.999C596.086,-358.316 596.085,-360.632 596.087,-362.948C596.088,-363.452 595.989,-363.933 595.764,-364.381C595.414,-365.077 595.215,-365.819 595.079,-366.579C595.007,-366.983 594.95,-367.389 594.887,-367.793C595.276,-367.894 597.733,-367.903 598.042,-367.797" style="fill:rgb(254,254,1);fill-rule:nonzero;"/>
                    <path id="path1384" d="M598.524,-378.376L598.524,-376.621L594.296,-376.621L594.296,-378.318C595.713,-378.381 597.113,-378.422 598.524,-378.376" style="fill:rgb(254,254,1);fill-rule:nonzero;"/>
                    <path id="path1386" d="M594.287,-387.942C594.282,-388.015 594.274,-388.072 594.274,-388.129C594.273,-388.532 594.269,-388.935 594.276,-389.338C594.28,-389.586 594.298,-389.608 594.541,-389.652C594.738,-389.688 594.94,-389.722 595.139,-389.722C595.869,-389.722 596.599,-389.707 597.329,-389.699C597.614,-389.696 597.9,-389.695 598.185,-389.689C598.291,-389.687 598.398,-389.67 598.52,-389.659L598.52,-387.941L594.287,-387.942Z" style="fill:rgb(254,254,1);fill-rule:nonzero;"/>
                    <path id="path1388" d="M598.532,-385.241L598.532,-383.481L594.291,-383.481L594.291,-385.18C595.711,-385.201 597.121,-385.221 598.532,-385.241" style="fill:rgb(254,254,1);fill-rule:nonzero;"/>
                    <path id="path1390" d="M598.523,-376.08L598.523,-374.509C598.156,-374.376 594.889,-374.341 594.252,-374.465C594.215,-374.981 594.313,-375.504 594.264,-376.057C594.415,-376.067 594.545,-376.082 594.675,-376.082C595.747,-376.083 596.818,-376.081 597.89,-376.081L598.523,-376.081" style="fill:rgb(254,254,1);fill-rule:nonzero;"/>
                    <path id="path1392" d="M594.285,-385.723L594.285,-387.392L598.495,-387.392C598.547,-387.234 598.565,-386.234 598.517,-385.783C597.117,-385.735 595.714,-385.71 594.285,-385.723" style="fill:rgb(254,254,1);fill-rule:nonzero;"/>
                    <path id="path1394" d="M598.527,-382.936L598.527,-381.301C598.461,-381.291 598.398,-381.271 598.335,-381.271C597.02,-381.275 595.704,-381.282 594.389,-381.288C594.364,-381.288 594.34,-381.296 594.316,-381.3C594.264,-381.476 594.249,-382.547 594.298,-382.925C595.695,-382.945 597.097,-383.01 598.527,-382.936" style="fill:rgb(254,254,1);fill-rule:nonzero;"/>
                    <path id="path1396" d="M594.299,-378.983L594.299,-380.62C595.704,-380.553 597.109,-380.704 598.523,-380.53L598.523,-378.983L594.299,-378.983Z" style="fill:rgb(254,254,1);fill-rule:nonzero;"/>
                    <path id="path1398" d="M574.685,-397.899L577.327,-397.899L577.327,-398.868C576.442,-398.976 575.564,-398.882 574.685,-398.924L574.685,-397.899ZM577.33,-400.373C576.435,-400.419 575.559,-400.379 574.684,-400.366C574.654,-400.13 574.663,-399.46 574.695,-399.349C574.71,-399.347 574.726,-399.342 574.741,-399.342C575.564,-399.338 576.387,-399.334 577.21,-399.332C577.249,-399.332 577.289,-399.344 577.33,-399.351L577.33,-400.373ZM574.676,-402.116C575.57,-402.108 576.448,-402.124 577.323,-402.154C577.354,-402.437 577.343,-403.062 577.31,-403.161L574.676,-403.161L574.676,-402.116ZM577.328,-396.084C577.183,-396.084 577.057,-396.083 576.932,-396.084C576.261,-396.084 575.59,-396.085 574.92,-396.084C574.839,-396.084 574.757,-396.075 574.663,-396.069C574.694,-395.723 574.632,-395.396 574.656,-395.073C575.054,-394.995 577.099,-395.018 577.328,-395.1L577.328,-396.084ZM577.334,-401.815C576.451,-401.803 575.569,-401.79 574.68,-401.777L574.68,-400.714L577.334,-400.714L577.334,-401.815ZM574.677,-403.505L577.326,-403.505L577.326,-404.579C577.249,-404.586 577.183,-404.596 577.116,-404.598C576.938,-404.602 576.759,-404.602 576.581,-404.604C576.124,-404.61 575.667,-404.619 575.211,-404.619C575.086,-404.619 574.96,-404.597 574.836,-404.575C574.684,-404.547 574.673,-404.533 574.67,-404.378C574.666,-404.126 574.669,-403.874 574.67,-403.622C574.67,-403.586 574.675,-403.551 574.678,-403.505M577.329,-397.52C576.446,-397.548 575.57,-397.523 574.684,-397.484L574.684,-396.422L577.329,-396.422L577.329,-397.52ZM577.027,-390.901C576.833,-390.967 575.297,-390.962 575.053,-390.899C575.093,-390.646 575.128,-390.392 575.174,-390.14C575.259,-389.664 575.383,-389.2 575.602,-388.764C575.743,-388.484 575.805,-388.183 575.804,-387.868C575.802,-386.419 575.804,-384.969 575.804,-383.52C575.804,-382.585 575.802,-381.651 575.807,-380.716C575.807,-380.609 575.83,-380.497 575.868,-380.397C575.908,-380.292 576.055,-380.247 576.129,-380.312C576.181,-380.357 576.222,-380.429 576.237,-380.495C576.261,-380.596 576.266,-380.703 576.265,-380.807C576.262,-381.106 576.249,-381.404 576.246,-381.703C576.242,-382.065 576.245,-382.427 576.245,-382.789L576.245,-388.177C576.245,-388.267 576.25,-388.352 576.296,-388.435C576.512,-388.81 576.665,-389.211 576.762,-389.632C576.859,-390.054 576.94,-390.48 577.028,-390.901M574.68,-405.494C574.829,-405.403 574.979,-405.407 575.122,-405.405C575.741,-405.399 576.36,-405.401 576.979,-405.404C577.097,-405.405 577.218,-405.416 577.338,-405.477C577.338,-405.531 577.341,-405.583 577.337,-405.635C577.315,-405.99 577.303,-406.346 577.265,-406.7C577.218,-407.142 577.141,-407.581 577.094,-408.023C577.074,-408.213 576.961,-408.297 576.809,-408.357C576.762,-408.376 576.707,-408.383 576.656,-408.383C576.221,-408.383 575.786,-408.381 575.351,-408.379C575.33,-408.379 575.309,-408.377 575.288,-408.373C575.06,-408.335 574.988,-408.261 574.955,-408.031C574.896,-407.616 574.827,-407.203 574.782,-406.786C574.736,-406.356 574.713,-405.922 574.68,-405.493M574.67,-394.117C574.744,-393.137 574.812,-392.157 575,-391.189C575.057,-391.182 575.098,-391.173 575.139,-391.173C575.684,-391.164 576.229,-391.155 576.775,-391.149C576.827,-391.148 576.879,-391.161 576.93,-391.167C577.027,-391.178 577.071,-391.231 577.092,-391.327C577.165,-391.656 577.19,-391.99 577.212,-392.325C577.215,-392.371 577.222,-392.417 577.229,-392.464C577.251,-392.635 577.277,-392.805 577.294,-392.976C577.307,-393.106 577.308,-393.237 577.313,-393.368C577.325,-393.639 577.336,-393.91 577.347,-394.172C577.109,-394.275 575.021,-394.232 574.67,-394.117M575.038,-408.562C575.097,-408.497 575.165,-408.479 575.241,-408.478C575.32,-408.477 575.399,-408.474 575.477,-408.474C575.908,-408.473 576.338,-408.467 576.768,-408.475C576.974,-408.479 577.022,-408.562 576.991,-408.744C576.957,-408.95 576.93,-409.158 576.905,-409.366C576.827,-410.026 576.754,-410.686 576.674,-411.346C576.597,-411.975 576.585,-412.609 576.562,-413.242C576.555,-413.446 576.572,-413.65 576.582,-413.854C576.594,-414.121 576.594,-414.39 576.628,-414.654C576.715,-415.339 576.825,-416.022 576.913,-416.707C576.99,-417.319 577.059,-417.933 577.114,-418.547C577.151,-418.964 577.163,-419.383 577.178,-419.802C577.194,-420.221 577.206,-420.64 577.21,-421.06C577.218,-421.716 577.22,-422.373 577.221,-423.029C577.221,-423.113 577.242,-423.171 577.312,-423.228C578.582,-424.258 579.848,-425.293 581.119,-426.322C581.249,-426.428 581.309,-426.546 581.309,-426.712C581.307,-429.38 581.307,-432.049 581.308,-434.718C581.309,-434.888 581.248,-435.018 581.115,-435.125C580.375,-435.727 579.637,-436.332 578.899,-436.936C578.004,-437.67 577.109,-438.405 576.213,-439.14C576.133,-439.206 576.048,-439.216 575.957,-439.166C575.907,-439.138 575.855,-439.111 575.811,-439.075C575.391,-438.736 574.972,-438.395 574.553,-438.054C573.529,-437.221 572.504,-436.388 571.479,-435.555C571.312,-435.42 571.147,-435.281 570.977,-435.151C570.822,-435.033 570.748,-434.882 570.753,-434.69C570.754,-434.653 570.753,-434.617 570.753,-434.58C570.757,-434.081 570.763,-433.582 570.763,-433.083C570.761,-431.612 570.756,-430.142 570.753,-428.671C570.752,-428.062 570.757,-427.453 570.75,-426.843C570.747,-426.591 570.842,-426.403 571.037,-426.246C571.899,-425.553 572.757,-424.856 573.616,-424.16C573.946,-423.893 574.276,-423.625 574.605,-423.357C574.711,-423.271 574.787,-423.168 574.795,-423.027C574.802,-422.907 574.812,-422.787 574.815,-422.667C574.827,-422.211 574.837,-421.754 574.848,-421.298C574.857,-420.926 574.866,-420.554 574.88,-420.182C574.898,-419.701 574.916,-419.219 574.944,-418.738C574.966,-418.357 574.991,-417.975 575.038,-417.597C575.144,-416.745 575.271,-415.897 575.374,-415.045C575.429,-414.588 575.465,-414.127 575.485,-413.668C575.511,-413.049 575.474,-412.431 575.419,-411.814C575.379,-411.361 575.337,-410.908 575.287,-410.455C575.246,-410.086 575.193,-409.719 575.144,-409.35C575.109,-409.087 575.072,-408.823 575.037,-408.562" style="fill:rgb(254,254,1);fill-rule:nonzero;"/>
                    <path id="path1400" d="M575.86,-425.206C575.682,-425.409 575.518,-425.592 575.359,-425.78C575.165,-426.008 574.963,-426.231 574.789,-426.473C574.479,-426.903 574.179,-427.341 573.89,-427.786C573.599,-428.235 573.336,-428.702 573.197,-429.227C573.165,-429.349 573.135,-429.471 573.104,-429.593C572.916,-430.33 572.827,-431.077 572.856,-431.84C572.878,-432.412 572.869,-432.985 572.873,-433.557C572.873,-433.594 572.873,-433.631 572.871,-433.668C572.869,-433.727 572.842,-433.773 572.779,-433.775C572.707,-433.777 572.679,-433.727 572.676,-433.662C572.674,-433.614 572.675,-433.567 572.675,-433.52C572.668,-432.973 572.671,-432.427 572.651,-431.881C572.626,-431.194 572.699,-430.52 572.83,-429.846C572.998,-428.985 573.339,-428.207 573.838,-427.491C574.081,-427.142 574.317,-426.788 574.56,-426.44C574.651,-426.311 574.752,-426.191 574.853,-426.07C575.102,-425.772 575.356,-425.478 575.604,-425.179C575.807,-424.935 575.915,-424.659 575.867,-424.334C575.854,-424.25 575.873,-424.162 575.838,-424.052C575.71,-424.189 575.606,-424.314 575.489,-424.425C574.925,-424.96 574.354,-425.487 573.792,-426.024C573.554,-426.252 573.303,-426.475 573.105,-426.736C572.556,-427.456 572.222,-428.273 572.114,-429.174C572.055,-429.659 572.014,-430.145 571.975,-430.632C571.9,-431.576 571.871,-432.52 571.914,-433.466C571.927,-433.754 571.959,-434.041 571.983,-434.329C571.989,-434.398 571.979,-434.458 571.903,-434.479C571.848,-434.493 571.796,-434.448 571.782,-434.362C571.76,-434.233 571.742,-434.103 571.732,-433.972C571.672,-433.18 571.684,-432.386 571.713,-431.593C571.735,-430.974 571.788,-430.356 571.839,-429.739C571.876,-429.299 571.933,-428.861 572.051,-428.434C572.314,-427.474 572.79,-426.644 573.536,-425.975C573.958,-425.596 574.378,-425.216 574.789,-424.824C575.115,-424.513 575.425,-424.184 575.742,-423.862C575.819,-423.783 575.848,-423.693 575.843,-423.578C575.82,-423.038 575.804,-422.497 575.788,-421.956C575.787,-421.911 575.786,-421.85 575.813,-421.822C575.886,-421.746 575.875,-421.659 575.872,-421.571C575.869,-421.471 575.857,-421.372 575.855,-421.272C575.853,-421.171 575.891,-421.134 575.982,-421.133C576.073,-421.132 576.115,-421.169 576.114,-421.268C576.113,-421.368 576.094,-421.467 576.095,-421.567C576.095,-421.638 576.091,-421.725 576.128,-421.777C576.177,-421.846 576.182,-421.91 576.179,-421.983C576.161,-422.513 576.148,-423.044 576.122,-423.574C576.116,-423.697 576.153,-423.786 576.232,-423.868C576.362,-424.005 576.486,-424.149 576.623,-424.279C577.187,-424.813 577.758,-425.34 578.32,-425.877C578.566,-426.112 578.823,-426.344 579.029,-426.613C579.543,-427.287 579.886,-428.047 580.015,-428.888C580.094,-429.396 580.134,-429.91 580.183,-430.422C580.276,-431.37 580.286,-432.321 580.27,-433.272C580.264,-433.591 580.23,-433.911 580.207,-434.23C580.204,-434.277 580.193,-434.324 580.184,-434.37C580.173,-434.432 580.145,-434.481 580.073,-434.479C580.015,-434.477 579.984,-434.424 579.987,-434.335C579.988,-434.298 579.994,-434.262 579.999,-434.225C580.008,-434.158 580.022,-434.09 580.025,-434.022C580.041,-433.518 580.065,-433.015 580.068,-432.511C580.073,-431.58 580.01,-430.652 579.923,-429.726C579.872,-429.187 579.797,-428.651 579.613,-428.138C579.38,-427.489 579.063,-426.887 578.566,-426.399C578.251,-426.09 577.915,-425.803 577.597,-425.498C577.158,-425.076 576.726,-424.647 576.292,-424.221C576.241,-424.171 576.191,-424.121 576.117,-424.046C576.108,-424.225 576.092,-424.366 576.096,-424.505C576.099,-424.608 576.114,-424.715 576.149,-424.81C576.245,-425.072 576.435,-425.272 576.613,-425.479C576.866,-425.774 577.129,-426.062 577.359,-426.374C577.662,-426.782 577.945,-427.207 578.223,-427.633C578.537,-428.113 578.819,-428.61 578.969,-429.171C579.014,-429.338 579.054,-429.507 579.094,-429.675C579.237,-430.269 579.33,-430.87 579.324,-431.483C579.317,-432.187 579.306,-432.891 579.296,-433.595C579.296,-433.631 579.301,-433.674 579.285,-433.702C579.266,-433.734 579.226,-433.771 579.194,-433.771C579.164,-433.772 579.117,-433.735 579.105,-433.704C579.087,-433.657 579.09,-433.601 579.09,-433.549C579.095,-432.976 579.09,-432.403 579.111,-431.831C579.135,-431.149 579.061,-430.481 578.919,-429.814C578.788,-429.202 578.588,-428.621 578.265,-428.085C577.915,-427.505 577.53,-426.948 577.13,-426.401C577.089,-426.346 577.042,-426.297 576.998,-426.245C576.724,-425.92 576.449,-425.595 576.175,-425.271C576.155,-425.247 576.128,-425.228 576.081,-425.186C576.102,-425.413 576.128,-425.606 576.137,-425.8C576.158,-426.241 576.329,-426.612 576.637,-426.924C576.667,-426.954 576.697,-426.983 576.722,-427.017C576.936,-427.309 577.169,-427.589 577.357,-427.897C577.641,-428.364 577.868,-428.859 578.045,-429.38C578.188,-429.802 578.273,-430.231 578.288,-430.675C578.306,-431.215 578.319,-431.756 578.333,-432.297C578.334,-432.35 578.337,-432.405 578.321,-432.453C578.309,-432.485 578.262,-432.53 578.237,-432.526C578.2,-432.52 578.164,-432.482 578.137,-432.449C578.123,-432.432 578.129,-432.399 578.128,-432.372C578.12,-432.12 578.113,-431.868 578.105,-431.616C578.093,-431.222 578.084,-430.829 578.064,-430.435C578.049,-430.146 577.987,-429.864 577.897,-429.587C577.652,-428.833 577.313,-428.126 576.834,-427.491C576.736,-427.361 576.63,-427.237 576.529,-427.11C576.402,-426.949 576.277,-426.787 576.151,-426.626C576.137,-426.609 576.119,-426.595 576.088,-426.566C576.117,-427.028 576.198,-427.449 576.419,-427.84C576.688,-428.317 576.867,-428.834 577.04,-429.352C577.076,-429.462 577.099,-429.575 577.123,-429.689C577.225,-430.179 577.219,-430.681 577.267,-431.177C577.277,-431.278 577.243,-431.33 577.18,-431.338C577.112,-431.348 577.071,-431.3 577.061,-431.187C577.046,-431.015 577.041,-430.841 577.023,-430.669C576.988,-430.335 576.962,-429.999 576.906,-429.669C576.835,-429.252 576.65,-428.87 576.499,-428.479C576.424,-428.286 576.322,-428.103 576.232,-427.915C576.221,-427.917 576.21,-427.92 576.2,-427.923C576.196,-427.973 576.189,-428.024 576.188,-428.074C576.171,-428.999 576.146,-429.923 576.138,-430.847C576.125,-432.313 576.124,-433.779 576.116,-435.245C576.113,-435.728 576.105,-436.211 576.099,-436.694C576.099,-436.699 576.1,-436.704 576.099,-436.709C576.094,-436.827 576.055,-436.883 575.98,-436.879C575.91,-436.877 575.874,-436.826 575.869,-436.717C575.867,-436.664 575.87,-436.612 575.871,-436.559C575.871,-436.433 575.872,-436.307 575.87,-436.181C575.86,-435.682 575.842,-435.183 575.84,-434.684C575.833,-433.261 575.838,-431.837 575.827,-430.413C575.821,-429.609 575.794,-428.806 575.775,-428.003C575.775,-427.977 575.765,-427.951 575.752,-427.896C575.705,-427.984 575.669,-428.042 575.642,-428.104C575.512,-428.413 575.384,-428.724 575.255,-429.034C575.086,-429.44 575.001,-429.866 574.97,-430.304C574.949,-430.592 574.931,-430.88 574.909,-431.168C574.899,-431.298 574.862,-431.346 574.792,-431.339C574.721,-431.332 574.693,-431.276 574.702,-431.151C574.722,-430.858 574.738,-430.564 574.764,-430.271C574.794,-429.936 574.838,-429.602 574.949,-429.282C575.119,-428.791 575.289,-428.299 575.547,-427.844C575.748,-427.489 575.839,-427.105 575.868,-426.703C575.87,-426.67 575.864,-426.637 575.862,-426.595C575.633,-426.873 575.414,-427.138 575.194,-427.404C575.191,-427.408 575.188,-427.412 575.184,-427.416C574.914,-427.767 574.691,-428.147 574.492,-428.541C574.277,-428.964 574.116,-429.408 573.993,-429.865C573.912,-430.166 573.889,-430.476 573.88,-430.786C573.863,-431.306 573.854,-431.826 573.842,-432.345C573.841,-432.377 573.848,-432.414 573.834,-432.438C573.812,-432.475 573.778,-432.519 573.742,-432.528C573.68,-432.543 573.648,-432.491 573.64,-432.435C573.633,-432.383 573.633,-432.33 573.634,-432.278C573.645,-431.826 573.656,-431.374 573.669,-430.923C573.682,-430.481 573.711,-430.041 573.845,-429.616C574.165,-428.602 574.643,-427.676 575.363,-426.885C575.43,-426.811 575.49,-426.73 575.551,-426.651C575.662,-426.508 575.745,-426.349 575.77,-426.169C575.811,-425.873 575.84,-425.575 575.872,-425.278C575.874,-425.259 575.866,-425.24 575.86,-425.206M575.036,-408.562C575.072,-408.823 575.108,-409.087 575.143,-409.351C575.192,-409.719 575.246,-410.086 575.287,-410.456C575.337,-410.908 575.379,-411.361 575.419,-411.815C575.473,-412.431 575.511,-413.049 575.484,-413.668C575.465,-414.128 575.429,-414.588 575.374,-415.045C575.271,-415.897 575.143,-416.745 575.038,-417.597C574.991,-417.976 574.966,-418.357 574.943,-418.739C574.915,-419.219 574.897,-419.701 574.879,-420.183C574.865,-420.554 574.857,-420.927 574.847,-421.298C574.836,-421.755 574.827,-422.211 574.815,-422.667C574.812,-422.787 574.801,-422.907 574.794,-423.027C574.786,-423.169 574.711,-423.272 574.605,-423.358C574.275,-423.625 573.946,-423.893 573.616,-424.16C572.756,-424.856 571.898,-425.553 571.037,-426.246C570.842,-426.403 570.746,-426.591 570.749,-426.844C570.756,-427.453 570.75,-428.062 570.751,-428.671C570.754,-430.142 570.759,-431.613 570.761,-433.084C570.762,-433.582 570.755,-434.081 570.751,-434.58C570.751,-434.617 570.752,-434.653 570.751,-434.69C570.746,-434.882 570.821,-435.033 570.975,-435.151C571.146,-435.281 571.31,-435.42 571.477,-435.555C572.502,-436.388 573.527,-437.221 574.552,-438.054C574.971,-438.395 575.389,-438.736 575.809,-439.075C575.853,-439.111 575.905,-439.138 575.956,-439.166C576.047,-439.216 576.131,-439.206 576.212,-439.14C577.107,-438.405 578.002,-437.67 578.898,-436.936C579.636,-436.332 580.374,-435.727 581.114,-435.126C581.247,-435.018 581.307,-434.888 581.307,-434.718C581.306,-432.049 581.305,-429.381 581.307,-426.712C581.307,-426.546 581.247,-426.428 581.117,-426.323C579.847,-425.293 578.58,-424.258 577.31,-423.228C577.24,-423.171 577.219,-423.113 577.219,-423.029C577.218,-422.373 577.216,-421.716 577.209,-421.06C577.204,-420.64 577.193,-420.221 577.177,-419.802C577.161,-419.383 577.149,-418.964 577.112,-418.547C577.057,-417.933 576.989,-417.319 576.911,-416.707C576.824,-416.022 576.714,-415.339 576.626,-414.654C576.593,-414.39 576.593,-414.121 576.58,-413.854C576.571,-413.651 576.554,-413.446 576.561,-413.242C576.584,-412.609 576.596,-411.976 576.672,-411.346C576.752,-410.686 576.825,-410.026 576.904,-409.366C576.928,-409.158 576.956,-408.95 576.99,-408.744C577.02,-408.562 576.973,-408.478 576.767,-408.475C576.337,-408.467 575.906,-408.473 575.476,-408.474C575.397,-408.474 575.319,-408.478 575.24,-408.479C575.164,-408.479 575.095,-408.498 575.036,-408.563" style="fill:rgb(254,254,1);fill-rule:nonzero;"/>
                    <path id="path1402" d="M574.669,-394.117C575.02,-394.232 577.108,-394.275 577.345,-394.171C577.335,-393.91 577.324,-393.639 577.312,-393.368C577.306,-393.237 577.306,-393.106 577.293,-392.975C577.276,-392.804 577.249,-392.634 577.227,-392.464C577.221,-392.417 577.214,-392.371 577.211,-392.324C577.189,-391.989 577.164,-391.656 577.091,-391.327C577.07,-391.23 577.026,-391.177 576.929,-391.166C576.877,-391.16 576.826,-391.148 576.774,-391.148C576.228,-391.155 575.683,-391.164 575.138,-391.172C575.097,-391.173 575.056,-391.181 574.999,-391.188C574.811,-392.157 574.742,-393.136 574.669,-394.117" style="fill:rgb(254,254,1);fill-rule:nonzero;"/>
                    <path id="path1404" d="M574.679,-405.493C574.712,-405.922 574.734,-406.355 574.781,-406.786C574.826,-407.202 574.894,-407.616 574.954,-408.03C574.986,-408.261 575.058,-408.334 575.287,-408.373C575.307,-408.377 575.329,-408.379 575.349,-408.379C575.784,-408.381 576.219,-408.383 576.655,-408.383C576.706,-408.383 576.761,-408.376 576.808,-408.357C576.96,-408.296 577.073,-408.213 577.093,-408.023C577.14,-407.581 577.217,-407.142 577.264,-406.699C577.301,-406.346 577.313,-405.99 577.336,-405.634C577.339,-405.583 577.336,-405.531 577.336,-405.477C577.217,-405.416 577.096,-405.405 576.977,-405.404C576.359,-405.401 575.74,-405.4 575.121,-405.405C574.978,-405.406 574.828,-405.402 574.679,-405.493" style="fill:rgb(254,254,1);fill-rule:nonzero;"/>
                    <path id="path1406" d="M577.027,-390.901C576.939,-390.479 576.857,-390.054 576.761,-389.632C576.664,-389.211 576.511,-388.809 576.295,-388.434C576.248,-388.352 576.243,-388.267 576.243,-388.177C576.244,-386.381 576.244,-384.585 576.244,-382.789C576.244,-382.427 576.241,-382.064 576.245,-381.702C576.248,-381.404 576.261,-381.105 576.263,-380.806C576.264,-380.702 576.259,-380.595 576.237,-380.495C576.221,-380.428 576.18,-380.356 576.129,-380.311C576.054,-380.247 575.907,-380.291 575.867,-380.397C575.828,-380.496 575.806,-380.609 575.806,-380.715C575.801,-381.65 575.803,-382.585 575.803,-383.52C575.803,-384.969 575.802,-386.418 575.804,-387.868C575.804,-388.183 575.743,-388.483 575.601,-388.764C575.382,-389.199 575.258,-389.663 575.173,-390.139C575.128,-390.392 575.092,-390.646 575.052,-390.898C575.296,-390.962 576.833,-390.967 577.027,-390.9" style="fill:rgb(254,254,1);fill-rule:nonzero;"/>
                    <path id="path1408" d="M577.328,-397.52L577.328,-396.422L574.683,-396.422L574.683,-397.484C575.569,-397.523 576.446,-397.549 577.328,-397.52" style="fill:rgb(254,254,1);fill-rule:nonzero;"/>
                    <path id="path1410" d="M574.677,-403.505C574.674,-403.551 574.669,-403.586 574.669,-403.622C574.668,-403.874 574.666,-404.126 574.67,-404.378C574.673,-404.534 574.684,-404.547 574.836,-404.575C574.959,-404.598 575.085,-404.618 575.21,-404.618C575.667,-404.618 576.124,-404.609 576.58,-404.604C576.759,-404.602 576.937,-404.602 577.116,-404.598C577.182,-404.597 577.249,-404.587 577.325,-404.58L577.325,-403.505L574.677,-403.505Z" style="fill:rgb(254,254,1);fill-rule:nonzero;"/>
                    <path id="path1412" d="M577.333,-401.815L577.333,-400.714L574.679,-400.714L574.679,-401.777C575.568,-401.79 576.451,-401.803 577.333,-401.815" style="fill:rgb(254,254,1);fill-rule:nonzero;"/>
                    <path id="path1414" d="M577.328,-396.084L577.328,-395.1C577.098,-395.018 575.054,-394.996 574.655,-395.073C574.632,-395.396 574.694,-395.723 574.663,-396.069C574.758,-396.075 574.839,-396.084 574.92,-396.084C575.591,-396.085 576.262,-396.084 576.932,-396.084L577.328,-396.084" style="fill:rgb(254,254,1);fill-rule:nonzero;"/>
                    <path id="path1416" d="M574.676,-402.116L574.676,-403.161L577.31,-403.161C577.343,-403.062 577.354,-402.437 577.323,-402.154C576.448,-402.124 575.57,-402.108 574.676,-402.116" style="fill:rgb(254,254,1);fill-rule:nonzero;"/>
                    <path id="path1418" d="M577.33,-400.373L577.33,-399.35C577.289,-399.343 577.249,-399.331 577.21,-399.331C576.387,-399.334 575.564,-399.338 574.741,-399.342C574.726,-399.342 574.71,-399.347 574.695,-399.349C574.663,-399.459 574.654,-400.129 574.684,-400.366C575.559,-400.378 576.435,-400.419 577.33,-400.373" style="fill:rgb(254,254,1);fill-rule:nonzero;"/>
                    <path id="path1420" d="M574.685,-397.899L574.685,-398.924C575.564,-398.882 576.442,-398.976 577.327,-398.868L577.327,-397.9L574.685,-397.899Z" style="fill:rgb(254,254,1);fill-rule:nonzero;"/>
                    <path id="path1422" d="M615.205,-397.899L617.847,-397.899L617.847,-398.868C616.963,-398.976 616.083,-398.882 615.205,-398.924L615.205,-397.899ZM617.85,-400.373C616.955,-400.419 616.078,-400.379 615.204,-400.366C615.174,-400.13 615.183,-399.46 615.216,-399.349C615.23,-399.347 615.246,-399.342 615.261,-399.342C616.084,-399.338 616.907,-399.334 617.73,-399.332C617.769,-399.332 617.809,-399.344 617.85,-399.351L617.85,-400.373ZM615.196,-402.116C616.09,-402.108 616.968,-402.124 617.843,-402.154C617.874,-402.437 617.863,-403.062 617.83,-403.161L615.196,-403.161L615.196,-402.116ZM617.848,-396.084C617.703,-396.084 617.577,-396.083 617.451,-396.084C616.781,-396.084 616.11,-396.085 615.44,-396.084C615.358,-396.084 615.277,-396.075 615.183,-396.069C615.213,-395.723 615.152,-395.396 615.176,-395.073C615.574,-394.995 617.618,-395.018 617.848,-395.1L617.848,-396.084ZM617.854,-401.815C616.971,-401.803 616.089,-401.79 615.2,-401.777L615.2,-400.714L617.854,-400.714L617.854,-401.815ZM615.197,-403.505L617.846,-403.505L617.846,-404.579C617.769,-404.586 617.703,-404.596 617.636,-404.598C617.457,-404.602 617.279,-404.602 617.1,-404.604C616.644,-404.61 616.187,-404.619 615.731,-404.619C615.606,-404.619 615.479,-404.597 615.356,-404.575C615.204,-404.547 615.193,-404.533 615.191,-404.378C615.187,-404.126 615.189,-403.874 615.19,-403.622C615.19,-403.586 615.195,-403.551 615.198,-403.505M617.849,-397.52C616.966,-397.548 616.09,-397.523 615.204,-397.484L615.204,-396.422L617.849,-396.422L617.849,-397.52ZM617.547,-390.901C617.353,-390.967 615.817,-390.962 615.573,-390.899C615.613,-390.646 615.648,-390.392 615.694,-390.14C615.779,-389.664 615.903,-389.2 616.122,-388.764C616.263,-388.484 616.325,-388.183 616.324,-387.868C616.322,-386.419 616.324,-384.969 616.324,-383.52C616.324,-382.585 616.322,-381.651 616.327,-380.716C616.327,-380.609 616.349,-380.497 616.387,-380.397C616.428,-380.292 616.575,-380.247 616.649,-380.312C616.701,-380.357 616.742,-380.429 616.757,-380.495C616.781,-380.596 616.785,-380.703 616.784,-380.807C616.781,-381.106 616.768,-381.404 616.765,-381.703C616.762,-382.065 616.764,-382.427 616.764,-382.789C616.764,-384.585 616.765,-386.381 616.764,-388.177C616.764,-388.267 616.769,-388.352 616.816,-388.435C617.031,-388.81 617.185,-389.211 617.281,-389.632C617.378,-390.054 617.46,-390.48 617.548,-390.901M615.2,-405.494C615.348,-405.403 615.499,-405.407 615.642,-405.405C616.261,-405.399 616.88,-405.401 617.498,-405.404C617.617,-405.405 617.737,-405.416 617.857,-405.477C617.857,-405.531 617.86,-405.583 617.857,-405.635C617.834,-405.99 617.822,-406.346 617.785,-406.7C617.737,-407.142 617.661,-407.581 617.614,-408.023C617.594,-408.213 617.481,-408.297 617.329,-408.357C617.282,-408.376 617.227,-408.383 617.175,-408.383C616.74,-408.383 616.305,-408.381 615.87,-408.379C615.849,-408.379 615.828,-408.377 615.808,-408.373C615.579,-408.335 615.507,-408.261 615.474,-408.031C615.416,-407.616 615.346,-407.203 615.302,-406.786C615.255,-406.356 615.232,-405.922 615.2,-405.493M615.189,-394.117C615.263,-393.137 615.332,-392.157 615.52,-391.189C615.577,-391.182 615.618,-391.173 615.659,-391.173C616.204,-391.164 616.749,-391.155 617.294,-391.149C617.346,-391.148 617.398,-391.161 617.45,-391.167C617.547,-391.178 617.591,-391.231 617.612,-391.327C617.685,-391.656 617.71,-391.99 617.732,-392.325C617.735,-392.371 617.742,-392.417 617.748,-392.464C617.77,-392.635 617.797,-392.805 617.814,-392.976C617.827,-393.106 617.828,-393.237 617.833,-393.368C617.844,-393.639 617.856,-393.91 617.867,-394.172C617.629,-394.275 615.542,-394.232 615.189,-394.117M615.557,-408.562C615.616,-408.497 615.685,-408.479 615.761,-408.478C615.84,-408.477 615.918,-408.474 615.997,-408.474C616.427,-408.473 616.858,-408.467 617.288,-408.475C617.494,-408.479 617.541,-408.562 617.511,-408.744C617.477,-408.95 617.449,-409.158 617.425,-409.366C617.346,-410.026 617.273,-410.686 617.193,-411.346C617.117,-411.975 617.105,-412.609 617.082,-413.242C617.075,-413.446 617.092,-413.65 617.102,-413.854C617.114,-414.121 617.114,-414.39 617.147,-414.654C617.235,-415.339 617.345,-416.022 617.433,-416.707C617.51,-417.319 617.578,-417.933 617.633,-418.547C617.671,-418.964 617.683,-419.383 617.698,-419.802C617.714,-420.221 617.725,-420.64 617.73,-421.06C617.738,-421.716 617.74,-422.373 617.74,-423.029C617.741,-423.113 617.761,-423.171 617.831,-423.228C619.102,-424.258 620.368,-425.293 621.638,-426.322C621.769,-426.428 621.828,-426.546 621.828,-426.712C621.826,-429.38 621.826,-432.049 621.828,-434.718C621.828,-434.888 621.768,-435.018 621.635,-435.125C620.895,-435.727 620.157,-436.332 619.419,-436.936C618.523,-437.67 617.628,-438.405 616.733,-439.14C616.652,-439.206 616.568,-439.216 616.477,-439.166C616.427,-439.138 616.375,-439.111 616.33,-439.075C615.911,-438.736 615.492,-438.395 615.073,-438.054C614.048,-437.221 613.023,-436.388 611.999,-435.555C611.832,-435.42 611.667,-435.281 611.496,-435.151C611.342,-435.033 611.268,-434.882 611.272,-434.69C611.273,-434.653 611.272,-434.617 611.272,-434.58C611.275,-434.081 611.283,-433.582 611.282,-433.083C611.281,-431.612 611.275,-430.142 611.272,-428.671C611.271,-428.062 611.276,-427.453 611.269,-426.843C611.266,-426.591 611.362,-426.403 611.557,-426.246C612.419,-425.553 613.277,-424.856 614.136,-424.16C614.466,-423.893 614.795,-423.625 615.125,-423.357C615.231,-423.271 615.306,-423.168 615.315,-423.027C615.322,-422.907 615.332,-422.787 615.335,-422.667C615.347,-422.211 615.356,-421.754 615.368,-421.298C615.378,-420.926 615.386,-420.554 615.399,-420.182C615.418,-419.701 615.435,-419.219 615.463,-418.738C615.486,-418.357 615.511,-417.975 615.558,-417.597C615.664,-416.745 615.791,-415.897 615.894,-415.045C615.949,-414.588 615.985,-414.127 616.005,-413.668C616.031,-413.049 615.993,-412.431 615.939,-411.814C615.899,-411.361 615.857,-410.908 615.807,-410.455C615.767,-410.086 615.713,-409.719 615.664,-409.35C615.629,-409.087 615.592,-408.823 615.557,-408.562" style="fill:rgb(254,254,1);fill-rule:nonzero;"/>
                    <path id="path1424" d="M616.38,-425.206C616.202,-425.409 616.038,-425.592 615.878,-425.78C615.685,-426.008 615.483,-426.231 615.309,-426.473C614.999,-426.903 614.698,-427.341 614.41,-427.786C614.119,-428.235 613.856,-428.702 613.717,-429.227C613.684,-429.349 613.655,-429.471 613.624,-429.593C613.437,-430.33 613.347,-431.077 613.376,-431.84C613.398,-432.412 613.389,-432.985 613.393,-433.557C613.393,-433.594 613.392,-433.631 613.39,-433.668C613.388,-433.727 613.361,-433.773 613.298,-433.775C613.226,-433.777 613.199,-433.727 613.195,-433.662C613.193,-433.614 613.195,-433.567 613.194,-433.52C613.187,-432.973 613.19,-432.427 613.17,-431.881C613.145,-431.194 613.218,-430.52 613.35,-429.846C613.518,-428.985 613.859,-428.207 614.357,-427.491C614.6,-427.142 614.836,-426.788 615.08,-426.44C615.17,-426.311 615.272,-426.191 615.372,-426.07C615.622,-425.772 615.875,-425.478 616.124,-425.179C616.327,-424.935 616.435,-424.659 616.386,-424.334C616.374,-424.25 616.392,-424.162 616.357,-424.052C616.23,-424.189 616.126,-424.314 616.009,-424.425C615.444,-424.96 614.874,-425.487 614.312,-426.024C614.073,-426.252 613.822,-426.475 613.624,-426.736C613.076,-427.456 612.741,-428.273 612.633,-429.174C612.575,-429.659 612.533,-430.145 612.495,-430.632C612.419,-431.576 612.39,-432.52 612.433,-433.466C612.446,-433.754 612.478,-434.041 612.503,-434.329C612.509,-434.398 612.499,-434.458 612.422,-434.479C612.368,-434.493 612.315,-434.448 612.301,-434.362C612.279,-434.233 612.262,-434.103 612.251,-433.972C612.191,-433.18 612.203,-432.386 612.232,-431.593C612.255,-430.974 612.308,-430.356 612.359,-429.739C612.395,-429.299 612.452,-428.861 612.57,-428.434C612.834,-427.474 613.309,-426.644 614.055,-425.975C614.477,-425.596 614.898,-425.216 615.308,-424.824C615.635,-424.513 615.944,-424.184 616.261,-423.862C616.339,-423.783 616.367,-423.693 616.362,-423.578C616.339,-423.038 616.323,-422.497 616.307,-421.956C616.306,-421.911 616.306,-421.85 616.332,-421.822C616.405,-421.746 616.394,-421.659 616.392,-421.571C616.389,-421.471 616.376,-421.372 616.374,-421.272C616.372,-421.171 616.41,-421.134 616.501,-421.133C616.593,-421.132 616.634,-421.169 616.633,-421.268C616.632,-421.368 616.614,-421.467 616.614,-421.567C616.614,-421.638 616.61,-421.725 616.647,-421.777C616.696,-421.846 616.701,-421.91 616.699,-421.983C616.681,-422.513 616.668,-423.044 616.641,-423.574C616.635,-423.697 616.672,-423.786 616.751,-423.868C616.882,-424.005 617.005,-424.149 617.142,-424.279C617.706,-424.813 618.278,-425.34 618.839,-425.877C619.085,-426.112 619.342,-426.344 619.548,-426.613C620.062,-427.287 620.405,-428.047 620.535,-428.888C620.613,-429.396 620.653,-429.91 620.703,-430.422C620.795,-431.37 620.806,-432.321 620.789,-433.272C620.783,-433.591 620.749,-433.911 620.727,-434.23C620.724,-434.277 620.712,-434.324 620.704,-434.37C620.692,-434.432 620.664,-434.481 620.592,-434.479C620.534,-434.477 620.503,-434.424 620.506,-434.335C620.507,-434.298 620.514,-434.262 620.518,-434.225C620.527,-434.158 620.542,-434.09 620.544,-434.022C620.561,-433.518 620.585,-433.015 620.588,-432.511C620.593,-431.58 620.529,-430.652 620.442,-429.726C620.391,-429.187 620.317,-428.651 620.132,-428.138C619.9,-427.489 619.582,-426.887 619.085,-426.399C618.77,-426.09 618.434,-425.803 618.116,-425.498C617.677,-425.076 617.245,-424.647 616.811,-424.221C616.76,-424.171 616.711,-424.121 616.636,-424.046C616.627,-424.225 616.611,-424.366 616.615,-424.505C616.618,-424.608 616.633,-424.715 616.669,-424.81C616.765,-425.072 616.954,-425.272 617.132,-425.479C617.385,-425.774 617.648,-426.062 617.879,-426.374C618.181,-426.782 618.464,-427.207 618.742,-427.633C619.056,-428.113 619.338,-428.61 619.488,-429.171C619.533,-429.338 619.573,-429.507 619.614,-429.675C619.756,-430.269 619.85,-430.87 619.844,-431.483C619.837,-432.187 619.826,-432.891 619.816,-433.595C619.815,-433.631 619.821,-433.674 619.804,-433.702C619.786,-433.734 619.745,-433.771 619.713,-433.771C619.683,-433.772 619.636,-433.735 619.624,-433.704C619.606,-433.657 619.609,-433.601 619.609,-433.549C619.614,-432.976 619.61,-432.403 619.63,-431.831C619.654,-431.149 619.581,-430.481 619.439,-429.814C619.308,-429.202 619.108,-428.621 618.784,-428.085C618.434,-427.505 618.049,-426.948 617.649,-426.401C617.608,-426.346 617.561,-426.297 617.517,-426.245C617.243,-425.92 616.969,-425.595 616.694,-425.271C616.674,-425.247 616.648,-425.228 616.6,-425.186C616.622,-425.413 616.648,-425.606 616.657,-425.8C616.677,-426.241 616.848,-426.612 617.157,-426.924C617.186,-426.954 617.217,-426.983 617.241,-427.017C617.455,-427.309 617.688,-427.589 617.876,-427.897C618.16,-428.364 618.388,-428.859 618.564,-429.38C618.707,-429.802 618.792,-430.231 618.807,-430.675C618.825,-431.215 618.838,-431.756 618.852,-432.297C618.853,-432.35 618.856,-432.405 618.84,-432.453C618.829,-432.485 618.782,-432.53 618.757,-432.526C618.72,-432.52 618.683,-432.482 618.656,-432.449C618.642,-432.432 618.649,-432.399 618.648,-432.372C618.64,-432.12 618.633,-431.868 618.625,-431.616C618.613,-431.222 618.604,-430.829 618.584,-430.435C618.569,-430.146 618.507,-429.864 618.417,-429.587C618.172,-428.833 617.832,-428.126 617.354,-427.491C617.256,-427.361 617.15,-427.237 617.049,-427.11C616.922,-426.949 616.797,-426.787 616.671,-426.626C616.657,-426.609 616.639,-426.595 616.609,-426.566C616.637,-427.028 616.719,-427.449 616.939,-427.84C617.208,-428.317 617.387,-428.834 617.56,-429.352C617.596,-429.462 617.619,-429.575 617.643,-429.689C617.745,-430.179 617.739,-430.681 617.787,-431.177C617.797,-431.278 617.763,-431.33 617.7,-431.338C617.632,-431.348 617.591,-431.3 617.581,-431.187C617.566,-431.015 617.561,-430.841 617.543,-430.669C617.508,-430.335 617.482,-429.999 617.426,-429.669C617.355,-429.252 617.17,-428.87 617.019,-428.479C616.944,-428.286 616.842,-428.103 616.753,-427.915C616.741,-427.917 616.73,-427.92 616.719,-427.923C616.715,-427.973 616.709,-428.024 616.708,-428.074C616.691,-428.999 616.666,-429.923 616.658,-430.847C616.645,-432.313 616.644,-433.779 616.636,-435.245C616.634,-435.728 616.625,-436.211 616.62,-436.694C616.619,-436.699 616.62,-436.704 616.619,-436.709C616.614,-436.827 616.575,-436.883 616.5,-436.879C616.43,-436.877 616.394,-436.826 616.389,-436.717C616.387,-436.664 616.391,-436.612 616.391,-436.559C616.391,-436.433 616.392,-436.307 616.39,-436.181C616.38,-435.682 616.362,-435.183 616.359,-434.684C616.352,-433.261 616.357,-431.837 616.346,-430.413C616.34,-429.609 616.314,-428.806 616.296,-428.003C616.295,-427.977 616.284,-427.951 616.272,-427.896C616.225,-427.984 616.189,-428.042 616.162,-428.104C616.032,-428.413 615.904,-428.724 615.775,-429.034C615.606,-429.44 615.521,-429.866 615.49,-430.304C615.469,-430.592 615.451,-430.88 615.429,-431.168C615.419,-431.298 615.382,-431.346 615.311,-431.339C615.241,-431.332 615.214,-431.276 615.222,-431.151C615.242,-430.858 615.258,-430.564 615.284,-430.271C615.314,-429.936 615.358,-429.602 615.469,-429.282C615.64,-428.791 615.809,-428.299 616.066,-427.844C616.268,-427.489 616.359,-427.105 616.388,-426.703C616.391,-426.67 616.385,-426.637 616.382,-426.595C616.153,-426.873 615.933,-427.138 615.714,-427.404C615.711,-427.408 615.708,-427.412 615.704,-427.416C615.434,-427.767 615.211,-428.147 615.011,-428.541C614.797,-428.964 614.636,-429.408 614.513,-429.865C614.433,-430.166 614.41,-430.476 614.4,-430.786C614.384,-431.306 614.374,-431.826 614.362,-432.345C614.361,-432.377 614.368,-432.414 614.354,-432.438C614.332,-432.475 614.298,-432.519 614.262,-432.528C614.2,-432.543 614.168,-432.491 614.16,-432.435C614.153,-432.383 614.153,-432.33 614.154,-432.278C614.165,-431.826 614.176,-431.374 614.189,-430.923C614.202,-430.481 614.231,-430.041 614.365,-429.616C614.685,-428.602 615.163,-427.676 615.883,-426.885C615.95,-426.811 616.01,-426.73 616.071,-426.651C616.182,-426.508 616.266,-426.349 616.29,-426.169C616.331,-425.873 616.36,-425.575 616.393,-425.278C616.395,-425.259 616.386,-425.24 616.38,-425.206M615.556,-408.562C615.592,-408.823 615.628,-409.087 615.663,-409.351C615.712,-409.719 615.766,-410.086 615.807,-410.456C615.857,-410.908 615.899,-411.361 615.939,-411.815C615.993,-412.431 616.031,-413.049 616.004,-413.668C615.985,-414.128 615.949,-414.588 615.894,-415.045C615.791,-415.897 615.663,-416.745 615.558,-417.597C615.511,-417.976 615.486,-418.357 615.463,-418.739C615.435,-419.219 615.417,-419.701 615.399,-420.183C615.385,-420.554 615.377,-420.927 615.367,-421.298C615.356,-421.755 615.347,-422.211 615.335,-422.667C615.332,-422.787 615.321,-422.907 615.314,-423.027C615.306,-423.169 615.231,-423.272 615.125,-423.358C614.795,-423.625 614.465,-423.893 614.136,-424.16C613.276,-424.856 612.418,-425.553 611.556,-426.246C611.362,-426.403 611.266,-426.591 611.269,-426.844C611.276,-427.453 611.27,-428.062 611.272,-428.671C611.275,-430.142 611.28,-431.613 611.282,-433.084C611.283,-433.582 611.276,-434.081 611.272,-434.58C611.272,-434.617 611.273,-434.653 611.272,-434.69C611.267,-434.882 611.342,-435.033 611.496,-435.151C611.667,-435.281 611.831,-435.42 611.998,-435.555C613.023,-436.388 614.048,-437.221 615.073,-438.054C615.491,-438.395 615.91,-438.736 616.33,-439.075C616.374,-439.111 616.427,-439.138 616.477,-439.166C616.567,-439.216 616.652,-439.206 616.733,-439.14C617.628,-438.405 618.523,-437.67 619.419,-436.936C620.157,-436.332 620.895,-435.727 621.635,-435.126C621.767,-435.018 621.828,-434.888 621.828,-434.718C621.827,-432.049 621.827,-429.381 621.828,-426.712C621.828,-426.546 621.768,-426.428 621.638,-426.323C620.368,-425.293 619.101,-424.258 617.831,-423.228C617.761,-423.171 617.74,-423.113 617.74,-423.029C617.739,-422.373 617.737,-421.716 617.729,-421.06C617.724,-420.64 617.714,-420.221 617.698,-419.802C617.682,-419.383 617.67,-418.964 617.633,-418.547C617.578,-417.933 617.51,-417.319 617.432,-416.707C617.345,-416.022 617.235,-415.339 617.147,-414.654C617.114,-414.39 617.114,-414.121 617.101,-413.854C617.092,-413.651 617.075,-413.446 617.082,-413.242C617.105,-412.609 617.117,-411.976 617.193,-411.346C617.273,-410.686 617.346,-410.026 617.424,-409.366C617.449,-409.158 617.476,-408.95 617.511,-408.744C617.541,-408.562 617.494,-408.478 617.288,-408.475C616.858,-408.467 616.427,-408.473 615.997,-408.474C615.918,-408.474 615.839,-408.478 615.761,-408.479C615.685,-408.479 615.616,-408.498 615.557,-408.563" style="fill:rgb(254,254,1);fill-rule:nonzero;"/>
                    <path id="path1426" d="M615.188,-394.117C615.541,-394.232 617.628,-394.275 617.866,-394.171C617.855,-393.91 617.843,-393.639 617.832,-393.368C617.827,-393.237 617.826,-393.106 617.813,-392.975C617.796,-392.804 617.769,-392.634 617.747,-392.464C617.741,-392.417 617.733,-392.371 617.731,-392.324C617.709,-391.989 617.684,-391.656 617.611,-391.327C617.59,-391.23 617.546,-391.177 617.449,-391.166C617.397,-391.16 617.345,-391.148 617.293,-391.148C616.748,-391.155 616.203,-391.164 615.658,-391.172C615.617,-391.173 615.576,-391.181 615.519,-391.188C615.331,-392.157 615.262,-393.136 615.188,-394.117" style="fill:rgb(254,254,1);fill-rule:nonzero;"/>
                    <path id="path1428" d="M615.199,-405.493C615.232,-405.922 615.254,-406.355 615.301,-406.786C615.346,-407.202 615.414,-407.616 615.474,-408.03C615.506,-408.261 615.578,-408.334 615.807,-408.373C615.827,-408.377 615.848,-408.379 615.869,-408.379C616.304,-408.381 616.739,-408.383 617.175,-408.383C617.226,-408.383 617.28,-408.376 617.328,-408.357C617.48,-408.296 617.593,-408.213 617.613,-408.023C617.66,-407.581 617.736,-407.142 617.784,-406.699C617.821,-406.346 617.833,-405.99 617.856,-405.634C617.86,-405.583 617.856,-405.531 617.856,-405.477C617.736,-405.416 617.616,-405.405 617.497,-405.404C616.879,-405.401 616.26,-405.4 615.641,-405.405C615.498,-405.406 615.348,-405.402 615.199,-405.493" style="fill:rgb(254,254,1);fill-rule:nonzero;"/>
                    <path id="path1430" d="M617.547,-390.901C617.459,-390.479 617.378,-390.054 617.281,-389.632C617.184,-389.211 617.03,-388.809 616.815,-388.434C616.768,-388.352 616.763,-388.267 616.763,-388.177C616.764,-386.381 616.764,-384.585 616.764,-382.789C616.764,-382.427 616.761,-382.064 616.764,-381.702C616.767,-381.404 616.78,-381.105 616.783,-380.806C616.784,-380.702 616.779,-380.595 616.756,-380.495C616.741,-380.428 616.7,-380.356 616.648,-380.311C616.574,-380.247 616.427,-380.291 616.386,-380.397C616.348,-380.496 616.326,-380.609 616.326,-380.715C616.321,-381.65 616.323,-382.585 616.323,-383.52C616.323,-384.969 616.322,-386.418 616.324,-387.868C616.324,-388.183 616.262,-388.483 616.121,-388.764C615.902,-389.199 615.778,-389.663 615.693,-390.139C615.647,-390.392 615.612,-390.646 615.572,-390.898C615.816,-390.962 617.353,-390.967 617.546,-390.9" style="fill:rgb(254,254,1);fill-rule:nonzero;"/>
                    <path id="path1432" d="M617.848,-397.52L617.848,-396.422L615.203,-396.422L615.203,-397.484C616.089,-397.523 616.966,-397.549 617.848,-397.52" style="fill:rgb(254,254,1);fill-rule:nonzero;"/>
                    <path id="path1434" d="M615.197,-403.505C615.194,-403.551 615.189,-403.586 615.189,-403.622C615.188,-403.874 615.186,-404.126 615.19,-404.378C615.192,-404.534 615.204,-404.547 615.355,-404.575C615.479,-404.598 615.605,-404.618 615.73,-404.618C616.186,-404.618 616.643,-404.609 617.1,-404.604C617.278,-404.602 617.457,-404.602 617.635,-404.598C617.702,-404.597 617.769,-404.587 617.845,-404.58L617.845,-403.505L615.197,-403.505Z" style="fill:rgb(254,254,1);fill-rule:nonzero;"/>
                    <path id="path1436" d="M617.853,-401.815L617.853,-400.714L615.199,-400.714L615.199,-401.777C616.088,-401.79 616.971,-401.803 617.853,-401.815" style="fill:rgb(254,254,1);fill-rule:nonzero;"/>
                    <path id="path1438" d="M617.848,-396.084L617.848,-395.1C617.618,-395.018 615.574,-394.996 615.175,-395.073C615.152,-395.396 615.213,-395.723 615.182,-396.069C615.277,-396.075 615.358,-396.084 615.439,-396.084C616.11,-396.085 616.78,-396.084 617.451,-396.084L617.847,-396.084" style="fill:rgb(254,254,1);fill-rule:nonzero;"/>
                    <path id="path1440" d="M615.196,-402.116L615.196,-403.161L617.83,-403.161C617.863,-403.062 617.874,-402.437 617.843,-402.154C616.968,-402.124 616.09,-402.108 615.196,-402.116" style="fill:rgb(254,254,1);fill-rule:nonzero;"/>
                    <path id="path1442" d="M617.85,-400.373L617.85,-399.35C617.808,-399.343 617.769,-399.331 617.73,-399.331C616.907,-399.334 616.084,-399.338 615.261,-399.342C615.246,-399.342 615.23,-399.347 615.216,-399.349C615.183,-399.459 615.174,-400.129 615.204,-400.366C616.078,-400.378 616.955,-400.419 617.85,-400.373" style="fill:rgb(254,254,1);fill-rule:nonzero;"/>
                    <path id="path1444" d="M615.205,-397.899L615.205,-398.924C616.083,-398.882 616.963,-398.976 617.847,-398.868L617.847,-397.9L615.205,-397.899Z" style="fill:rgb(254,254,1);fill-rule:nonzero;"/>
                </g>
                <path id="path1456" d="M739.253,-1713.411C754.805,-1716.96 764.645,-1716.384 780.452,-1713.223" style="fill:none;fill-rule:nonzero;"/>
            </g>
        </g>
    </g>
</svg>
